<svg width="48" height="48" viewBox="0 0 48 48" fill="none" xmlns="http://www.w3.org/2000/svg">
<path d="M29.7188 13.7953H39.0703V16.0641H29.7188V13.7953ZM20.3484 22.7719C22.4156 21.7828 23.4984 20.2781 23.4984 17.9531C23.4984 13.3547 20.0766 12.2391 16.125 12.2391H5.25V35.3203H16.4297C20.6203 35.3203 24.5531 33.3047 24.5531 28.6172C24.5531 25.7203 23.1844 23.5781 20.3484 22.7719V22.7719ZM10.3219 16.1766H15.0797C16.9125 16.1766 18.5578 16.6875 18.5578 18.8156C18.5578 20.775 17.2781 21.5625 15.4641 21.5625H10.3219V16.1766ZM15.7359 31.4016H10.3172V25.0453H15.8438C18.075 25.0453 19.4859 25.9781 19.4859 28.3406C19.4859 30.6656 17.8031 31.4016 15.7359 31.4016V31.4016ZM42.7266 27.2062C42.7266 22.2609 39.8344 18.1406 34.6031 18.1406C29.5172 18.1406 26.0578 21.9703 26.0578 26.9906C26.0578 32.1937 29.3344 35.7656 34.6031 35.7656C38.5922 35.7656 41.175 33.9703 42.4172 30.1406H38.3719C37.9312 31.5703 36.1406 32.3203 34.7484 32.3203C32.0578 32.3203 30.6516 30.7453 30.6516 28.0687H42.6937C42.7078 27.7922 42.7266 27.5016 42.7266 27.2062V27.2062ZM30.6516 25.1719C30.7969 22.9734 32.2641 21.6 34.4578 21.6C36.7641 21.6 37.9172 22.9547 38.1188 25.1719H30.6516Z" fill="black"/>
</svg>
