<svg width="48" height="48" viewBox="0 0 48 48" fill="none" xmlns="http://www.w3.org/2000/svg">
<path d="M24 4.5C13.2469 4.5 4.5 13.2469 4.5 24C4.5 34.7531 13.2469 43.5 24 43.5C34.7531 43.5 43.5 34.7531 43.5 24C43.5 13.2469 34.7531 4.5 24 4.5ZM36.8953 13.4906C39.2156 16.3266 40.6219 19.9359 40.6547 23.8688C40.1062 23.7516 34.5984 22.6359 29.0578 23.3344C28.9406 23.0484 28.8234 22.7625 28.7016 22.4766C28.3547 21.6656 27.9844 20.8547 27.5953 20.0625C33.75 17.5453 36.5437 13.9687 36.8953 13.4906ZM24 7.36875C28.2328 7.36875 32.1 8.95781 35.0391 11.5641C34.7391 11.9906 32.2312 15.3609 26.3109 17.5828C23.5828 12.5672 20.5594 8.45156 20.0953 7.83281C21.375 7.52344 22.6828 7.36875 24 7.36875V7.36875ZM16.9172 8.95312C17.3578 9.55313 20.3344 13.6828 23.0906 18.5859C15.3 20.6531 8.4375 20.625 7.69219 20.6156C8.775 15.4453 12.2578 11.1516 16.9172 8.95312ZM7.34531 24.0234C7.34531 23.8547 7.35 23.6813 7.35469 23.5125C8.08125 23.5266 16.1531 23.6297 24.4734 21.1406C24.9516 22.0734 25.4063 23.0203 25.8234 23.9672C25.6031 24.0281 25.3828 24.0938 25.1672 24.1641C16.575 26.9484 12.0047 34.5187 11.625 35.1609C8.96719 32.2078 7.34531 28.3031 7.34531 24.0234ZM24 40.6781C20.1469 40.6781 16.5984 39.3656 13.7766 37.1625C14.0766 36.5484 17.4469 30.0375 26.8406 26.7609L26.9484 26.7234C29.2875 32.7984 30.2531 37.8937 30.5016 39.3562C28.4468 40.2345 26.2345 40.6843 24 40.6781V40.6781ZM33.3047 37.8328C33.1359 36.8203 32.25 31.9453 30.0703 25.9594C35.2922 25.125 39.8766 26.4938 40.4437 26.6719C39.7031 31.3031 37.0453 35.3062 33.3047 37.8328V37.8328Z" fill="black"/>
</svg>
