<svg width="560" height="667" viewBox="0 0 560 667" fill="none" xmlns="http://www.w3.org/2000/svg">
<path d="M396.503 486.149H539.67C539.67 486.149 532.548 476.007 524.706 474.735C524.706 474.735 509.493 424.994 483.88 424.645C460.134 424.312 450.606 455.223 450.606 455.223C450.606 455.223 439.542 441.357 429.086 447.654C418.631 453.952 412.615 472.147 412.615 472.147C412.615 472.147 400.79 479.17 396.503 486.149Z" fill="#EBEBEB"/>
<path d="M181.047 292.829H0C0 292.829 0 280.174 24.8938 277.692C24.8938 277.692 47.6578 222.349 82.4262 229.797C104.084 234.338 115.148 266.959 115.148 266.959C115.148 266.959 131.508 241.347 144.592 246.312C157.675 251.277 165.447 278.524 165.447 278.524C165.447 278.524 179 285.684 181.047 292.829Z" fill="#EBEBEB"/>
<path d="M531.829 250.081H408.742C408.742 250.081 420.36 238.244 425.518 238.244C430.677 238.244 445.751 198.508 465.002 200.203C484.254 201.899 494.474 231.477 494.474 231.477C494.474 231.477 517.874 223.454 531.829 250.081Z" fill="#EBEBEB"/>
<path d="M258.259 412.263H152.972C152.972 412.263 158.214 404.8 164.036 403.862C164.036 403.862 175.266 367.29 194.047 367.033C211.514 366.79 218.526 389.527 218.526 389.527C218.526 389.527 226.617 379.324 234.348 383.987C242.078 388.649 246.463 402 246.463 402C246.463 402 255.092 407.132 258.259 412.263Z" fill="#EBEBEB"/>
<path d="M166.747 149.856H309.942C309.942 149.856 302.833 139.714 294.978 138.443C294.978 138.443 279.765 88.7013 254.166 88.3532C230.406 88.0201 220.877 118.931 220.877 118.931C220.877 118.931 209.813 105.065 199.358 111.362C188.903 117.659 182.9 135.854 182.9 135.854C182.9 135.854 171.034 142.878 166.747 149.856Z" fill="#EBEBEB"/>
<path d="M424.868 70.2034C424.868 93.0911 409.365 117.356 396.517 136.808C391.358 144.634 386.725 151.87 383.351 157.228C379.769 162.89 377.556 166.477 377.556 166.477H353.368C353.368 166.477 351.155 162.89 347.573 157.228C344.198 151.87 339.565 144.634 334.407 136.808C321.559 117.326 306.056 93.0609 306.056 70.2034C306.056 32.814 331.475 8.4428 359.688 5.49101H359.978C361.79 5.3245 363.629 5.23367 365.51 5.23367C367.391 5.23367 369.189 5.3245 371.042 5.49101H371.333C399.449 8.4428 424.868 32.814 424.868 70.2034Z" fill="#EBEBEB"/>
<path d="M369.618 157.259C369.161 160.286 368.677 163.314 368.235 166.508H362.827C362.316 163.359 361.831 160.286 361.375 157.259C341.585 26.7742 365.524 5.18826 365.524 5.18826C365.524 5.18826 389.408 26.7742 369.618 157.259Z" fill="white"/>
<path d="M356.535 157.259C358.761 163.071 360.255 166.507 360.255 166.507H357.088C357.088 166.507 355.055 163.056 351.791 157.259C349.44 153.035 346.439 147.571 343.106 141.243C332.222 120.505 318.212 94.8016 320.854 66.1163C324.449 26.3957 355.138 8.00379 359.688 5.56667L360.255 5.26392L359.978 5.52125C357.378 8.12489 336.91 29.8925 336.91 70.0671C336.91 102.037 349.938 140.078 356.535 157.259Z" fill="white"/>
<path d="M387.818 141.243C384.485 147.571 381.484 153.035 379.133 157.259C375.869 163.056 373.836 166.508 373.836 166.508H370.669C370.669 166.508 372.162 163.071 374.389 157.259C380.986 140.078 394.014 102.037 394.014 69.9915C394.014 29.8168 373.545 8.04923 370.945 5.4456L370.669 5.18826L371.236 5.49101C375.786 8.00382 406.474 26.3958 410.07 66.1163C412.67 94.8017 398.702 120.505 387.818 141.243Z" fill="white"/>
<path d="M383.351 157.259C379.769 162.92 377.556 166.508 377.556 166.508H353.368C353.368 166.508 351.155 162.92 347.573 157.259H383.351Z" fill="#DBDBDB"/>
<path d="M329.346 104.144L328.023 104.583L352.455 192.711L353.778 192.272L329.346 104.144Z" fill="#DBDBDB"/>
<path d="M353.81 104.332L352.43 104.434L357.862 192.561L359.242 192.459L353.81 104.332Z" fill="#DBDBDB"/>
<path d="M401.566 104.155L377.162 192.292L378.486 192.731L402.89 104.594L401.566 104.155Z" fill="#DBDBDB"/>
<path d="M377.096 104.331L371.664 192.457L373.043 192.559L378.476 104.432L377.096 104.331Z" fill="#DBDBDB"/>
<path d="M417.594 103.733H313.316V106.76H417.594V103.733Z" fill="#DBDBDB"/>
<path d="M379.008 192.862L378.427 200.506L377.127 217.717H353.796L352.496 200.506L351.915 192.862H379.008Z" fill="#EBEBEB"/>
<path d="M379.008 192.862L378.427 200.506H352.496L351.915 192.862H379.008Z" fill="#DBDBDB"/>
<path d="M380.364 190.697H350.56V195.026H380.364V190.697Z" fill="#EBEBEB"/>
<path d="M12.5852 561.563L76.8942 561.2L141.217 561.064L269.835 560.807L398.453 561.064L462.776 561.2L527.085 561.563L462.776 561.927L398.453 562.063L269.835 562.32L141.217 562.063L76.8942 561.927L12.5852 561.563Z" fill="#263238"/>
<path d="M269.835 666.299C402.76 666.299 510.517 653.09 510.517 636.796C510.517 620.502 402.76 607.293 269.835 607.293C136.91 607.293 29.1534 620.502 29.1534 636.796C29.1534 653.09 136.91 666.299 269.835 666.299Z" fill="#EBEBEB"/>
<path d="M112.783 42.6836C112.326 42.3203 89.922 37.6429 75.2346 57.821C61.7228 76.3643 61.9303 104.187 64.2952 104.217C67.1856 104.217 71.7633 89.6701 84.473 78.8771C88.9815 75.0474 97.6114 75.2593 97.6114 75.2593L112.783 42.6836Z" fill="#FFC727"/>
<path d="M155.614 76.2735C156.07 76.6216 167.314 98.3438 154.591 120.051C142.89 140.017 118.743 148.812 117.969 146.299C117.029 143.272 128.148 133.886 133.403 117.235C135.27 111.332 132.311 102.461 132.311 102.461L155.614 76.2735Z" fill="#FFC727"/>
<path d="M117.056 116.372L90.6549 95.6645C90.6549 95.6645 91.8305 65.0567 109.547 41.3515C118.437 29.8706 129.06 20.1427 140.954 12.5905C156.029 2.79656 169.734 -1.77494 172.763 0.631907C175.792 3.03875 176.276 18.7968 172.666 37.4915C169.96 52.2277 164.979 66.3513 157.937 79.2556C143.153 105.307 117.056 116.372 117.056 116.372Z" fill="#EBEBEB"/>
<path d="M115.047 114.773L92.6859 97.2378L87.8209 104.67L110.182 122.205L115.047 114.773Z" fill="#FFC727"/>
<path d="M149.847 65.8892C147.999 68.7132 145.428 70.874 142.458 72.0981C139.488 73.3223 136.253 73.5549 133.163 72.7665C130.072 71.9781 127.264 70.2042 125.095 67.669C122.926 65.1339 121.492 61.9515 120.975 58.5244C120.459 55.0973 120.882 51.5794 122.192 48.4158C123.503 45.2522 125.641 42.5849 128.336 40.7515C131.031 38.9181 134.163 38.0008 137.335 38.1156C140.506 38.2305 143.576 39.3724 146.154 41.3969C147.867 42.739 149.321 44.4373 150.434 46.3949C151.546 48.3524 152.295 50.5308 152.638 52.8054C152.981 55.0801 152.911 57.4064 152.432 59.6514C151.953 61.8964 151.075 64.0161 149.847 65.8892Z" fill="#FFC727"/>
<path d="M136.819 67.842C142.96 67.842 147.938 62.3931 147.938 55.6715C147.938 48.9499 142.96 43.501 136.819 43.501C130.678 43.501 125.7 48.9499 125.7 55.6715C125.7 62.3931 130.678 67.842 136.819 67.842Z" fill="#A6A6A6"/>
<path d="M172.708 37.5672L140.899 12.6661C155.974 2.87224 169.679 -1.69926 172.708 0.707591C175.736 3.11444 176.317 18.7968 172.708 37.5672Z" fill="#FFC727"/>
<path d="M147.606 13.2262C147.516 13.3637 147.401 13.4803 147.27 13.5692C147.138 13.6581 146.991 13.7177 146.838 13.7444C146.685 13.7711 146.529 13.7645 146.378 13.7249C146.228 13.6854 146.086 13.6136 145.961 13.5138C145.708 13.3131 145.538 13.0105 145.488 12.6727C145.439 12.3349 145.515 11.9895 145.698 11.7125C145.881 11.4354 146.158 11.2495 146.466 11.1956C146.775 11.1416 147.091 11.2241 147.344 11.4248C147.471 11.5226 147.579 11.6474 147.661 11.7916C147.743 11.9359 147.798 12.0968 147.823 12.2647C147.847 12.4327 147.841 12.6043 147.804 12.7695C147.767 12.9346 147.699 13.0899 147.606 13.2262V13.2262Z" fill="#EBEBEB"/>
<path d="M153.664 18.0096C153.573 18.1471 153.459 18.2637 153.327 18.3526C153.195 18.4416 153.049 18.5011 152.896 18.5278C152.743 18.5546 152.587 18.5479 152.436 18.5084C152.285 18.4688 152.143 18.3971 152.018 18.2973C151.893 18.1979 151.787 18.0724 151.706 17.9281C151.625 17.7838 151.57 17.6234 151.546 17.4561C151.522 17.2889 151.528 17.118 151.563 16.9532C151.599 16.7885 151.665 16.6331 151.755 16.4959C151.846 16.3587 151.961 16.2425 152.093 16.1538C152.225 16.0651 152.371 16.0057 152.524 15.979C152.677 15.9523 152.833 15.9588 152.983 15.9982C153.134 16.0375 153.276 16.1089 153.401 16.2083C153.528 16.3061 153.636 16.4308 153.719 16.5751C153.801 16.7193 153.856 16.8802 153.88 17.0482C153.905 17.2161 153.898 17.3878 153.861 17.5529C153.824 17.7181 153.757 17.8734 153.664 18.0096V18.0096Z" fill="#EBEBEB"/>
<path d="M159.804 22.8082C159.714 22.9457 159.599 23.0623 159.468 23.1512C159.336 23.2401 159.189 23.2997 159.036 23.3264C158.883 23.3531 158.727 23.3465 158.576 23.3069C158.426 23.2674 158.284 23.1956 158.159 23.0958C158.033 22.9964 157.927 22.871 157.846 22.7267C157.765 22.5823 157.711 22.422 157.686 22.2547C157.662 22.0874 157.668 21.9165 157.704 21.7518C157.74 21.587 157.805 21.4316 157.896 21.2945C157.987 21.1573 158.101 21.0411 158.233 20.9524C158.365 20.8637 158.512 20.8043 158.664 20.7776C158.817 20.7509 158.973 20.7574 159.124 20.7967C159.274 20.836 159.416 20.9075 159.542 21.0068C159.667 21.106 159.774 21.2313 159.855 21.3756C159.936 21.5199 159.991 21.6804 160.015 21.8477C160.04 22.0151 160.033 22.1862 159.997 22.351C159.961 22.5158 159.896 22.6712 159.804 22.8082V22.8082Z" fill="#EBEBEB"/>
<path d="M165.903 27.5765C165.813 27.714 165.698 27.8305 165.567 27.9195C165.435 28.0084 165.288 28.0679 165.135 28.0947C164.982 28.1214 164.826 28.1148 164.675 28.0752C164.525 28.0356 164.383 27.9639 164.258 27.8641C164.132 27.7647 164.026 27.6393 163.945 27.4949C163.864 27.3506 163.81 27.1902 163.785 27.023C163.761 26.8557 163.767 26.6848 163.803 26.52C163.839 26.3553 163.904 26.1999 163.995 26.0627C164.086 25.9256 164.2 25.8093 164.332 25.7206C164.464 25.632 164.611 25.5726 164.763 25.5459C164.916 25.5192 165.072 25.5257 165.223 25.565C165.373 25.6043 165.515 25.6757 165.641 25.7751C165.766 25.8742 165.873 25.9996 165.954 26.1439C166.035 26.2882 166.09 26.4486 166.114 26.616C166.138 26.7834 166.132 26.9544 166.096 27.1193C166.06 27.2841 165.995 27.4395 165.903 27.5765V27.5765Z" fill="#EBEBEB"/>
<path d="M172.002 32.3599C171.819 32.6367 171.544 32.8236 171.236 32.8802C170.928 32.9369 170.612 32.8587 170.357 32.6626C170.103 32.4595 169.932 32.1556 169.88 31.8161C169.828 31.4766 169.9 31.1285 170.08 30.8462C170.265 30.5674 170.544 30.3806 170.855 30.3267C171.167 30.2728 171.485 30.3562 171.74 30.5586C171.865 30.6577 171.972 30.783 172.053 30.9273C172.134 31.0716 172.189 31.2321 172.213 31.3995C172.237 31.5668 172.231 31.7379 172.195 31.9027C172.159 32.0675 172.094 32.2229 172.002 32.3599V32.3599Z" fill="#EBEBEB"/>
<path d="M156.665 298.596C156.665 297.567 156.568 296.538 156.568 295.569H157.606C157.606 296.538 157.605 297.537 157.702 298.596H156.665Z" fill="#263238"/>
<path d="M256.379 380.232H254.733V379.097C256.572 379.097 258.412 379.097 260.265 379.097V380.232C259.006 380.202 257.692 380.232 256.379 380.232ZM247.749 379.854C245.896 379.687 244.015 379.46 242.217 379.188L242.355 378.068C244.181 378.34 246.034 378.552 247.887 378.719L247.749 379.854ZM267.318 379.612L267.207 378.492C269.033 378.28 270.886 378.022 272.739 377.72L272.892 378.84C271.024 379.143 269.157 379.415 267.318 379.612ZM235.26 377.916C233.462 377.523 231.623 377.054 229.811 376.554L230.06 375.449C231.858 375.949 233.684 376.418 235.468 376.811L235.26 377.916ZM279.723 377.432L279.502 376.312C281.286 375.888 283.098 375.404 284.896 374.798L285.159 375.903C283.361 376.494 281.535 377.023 279.737 377.432H279.723ZM223.021 374.405C221.251 373.784 219.48 373.088 217.738 372.361L218.111 371.301C219.826 372.028 221.583 372.709 223.339 373.33L223.021 374.405ZM291.783 373.723L291.451 372.649C293.194 372.013 294.95 371.317 296.665 370.575L297.052 371.634C295.393 372.376 293.622 373.072 291.866 373.723H291.783ZM211.376 369.455C209.689 368.622 208.002 367.714 206.342 366.775L206.826 365.761C208.458 366.7 210.145 367.593 211.805 368.425L211.376 369.455ZM303.566 368.698L303.137 367.668C304.797 366.821 306.457 365.912 308.061 364.944L308.559 365.943C306.927 366.851 305.253 367.774 303.566 368.637V368.698ZM200.229 363.036C198.639 361.977 197.048 360.872 195.513 359.752L196.08 358.798C197.602 359.918 199.178 361.023 200.769 362.068L200.229 363.036ZM314.561 362.022L313.994 361.068C315.501 359.979 317.037 358.813 318.53 357.602L319.152 358.51C317.631 359.676 316.096 360.857 314.561 361.962V362.022ZM189.815 355.286C188.349 354.045 186.883 352.743 185.459 351.426L186.137 350.563C187.52 351.88 188.986 353.152 190.452 354.378L189.815 355.286ZM324.588 353.772L323.91 352.909C325.293 351.623 326.676 350.245 328.059 348.837L328.778 349.655C327.367 350.972 325.971 352.365 324.588 353.666V353.772ZM180.273 346.325C178.89 344.902 177.617 343.418 176.373 341.935L177.133 341.163C178.364 342.677 179.678 344.099 181.006 345.507L180.273 346.325ZM333.619 344.19L332.858 343.418C334.075 341.905 335.306 340.391 336.523 338.877L337.311 339.619C336.08 341.087 334.836 342.631 333.619 344.084V344.19ZM171.809 336.122C170.647 334.502 169.513 332.852 168.462 331.202L169.306 330.551C170.343 332.186 171.463 333.821 172.625 335.411L171.809 336.122ZM341.751 333.534L340.935 332.837C342.027 331.324 343.134 329.628 344.226 327.948L345.07 328.599C343.908 330.294 342.788 331.959 341.751 333.534ZM164.728 324.633C163.774 322.831 162.889 321 162.1 319.214L163.027 318.714C163.801 320.485 164.673 322.286 165.627 324.073L164.728 324.633ZM348.997 322.302L348.126 321.666C349.136 319.986 350.145 318.275 351.127 316.549L352.012 317.14C350.961 318.881 349.952 320.606 348.942 322.302H348.997ZM159.403 312.114C158.779 310.178 158.248 308.208 157.813 306.211L158.823 305.938C159.249 307.898 159.766 309.833 160.371 311.736L159.403 312.114ZM355.608 310.6L354.723 310.025C355.65 308.284 356.576 306.528 357.489 304.742L358.388 305.302C357.42 307.089 356.493 308.905 355.58 310.6H355.608ZM361.762 298.612L360.85 298.067C361.721 296.296 362.592 294.494 363.463 292.693L364.376 293.223L361.762 298.612ZM367.585 286.502L366.658 285.987L369.189 280.553L370.116 281.052C369.24 282.849 368.378 284.645 367.529 286.441L367.585 286.502ZM373.241 274.24L372.315 273.726L374.804 268.276L375.731 268.776L373.241 274.24ZM378.856 261.964L377.93 261.449L380.433 256L381.359 256.514L378.856 261.964ZM384.526 249.718L383.614 249.203C384.457 247.402 385.315 245.6 386.186 243.784L387.113 244.314C386.186 246.055 385.329 247.856 384.471 249.657L384.526 249.718ZM390.39 237.608L389.478 237.063C390.363 235.292 391.248 233.506 392.161 231.735L393.059 232.295C392.105 233.99 391.206 235.761 390.335 237.532L390.39 237.608ZM396.489 225.68L395.59 225.12C396.531 223.364 397.471 221.608 398.425 219.867L399.311 220.457C398.315 222.143 397.356 223.873 396.434 225.649L396.489 225.68ZM402.962 213.994L402.077 213.388C403.072 211.678 404.082 209.967 405.105 208.272L405.963 208.907C404.898 210.512 403.888 212.222 402.906 213.918L402.962 213.994ZM409.877 202.61L409.033 201.959C410.098 200.294 411.177 198.629 412.283 196.994L413.113 197.66C411.988 199.245 410.891 200.869 409.821 202.535L409.877 202.61ZM417.317 191.605L416.432 190.833C417.58 189.229 418.755 187.654 419.945 186.08L420.747 186.807C419.571 188.366 418.41 189.94 417.262 191.53L417.317 191.605ZM425.338 181.115L424.564 180.358C425.799 178.844 427.058 177.331 428.339 175.817L429.086 176.589C427.759 178.042 426.514 179.526 425.283 181.039L425.338 181.115ZM433.954 171.215L433.235 170.413C434.618 168.99 435.918 167.582 437.287 166.205L437.993 167.037C436.568 168.339 435.213 169.732 433.899 171.155L433.954 171.215ZM443.193 162.027L442.529 161.164C443.912 159.847 445.406 158.56 446.858 157.304L447.494 158.197C446 159.363 444.548 160.649 443.137 161.951L443.193 162.027ZM453.04 153.626L452.431 152.702C453.939 151.521 455.488 150.341 457.023 149.221L457.604 150.159C456.013 151.204 454.478 152.369 452.984 153.55L453.04 153.626ZM463.454 146.057L462.9 145.088C464.491 144.044 466.123 142.999 467.727 142.061L468.239 143.06C466.579 143.907 464.975 144.952 463.454 145.996V146.057Z" fill="#263238"/>
<path d="M474.517 139.2L474.047 138.185C474.863 137.731 475.693 137.277 476.537 136.838L476.993 137.852L474.517 139.2Z" fill="#263238"/>
<path d="M470.742 118.81L460.964 148.222L481.502 130.662L560 99.4943L470.742 118.81Z" fill="#FFC727"/>
<path opacity="0.2" d="M470.742 118.81L460.964 148.222L481.502 130.662L560 99.4943L470.742 118.81Z" fill="#222221"/>
<path d="M484.129 137.519L460.964 148.222L481.502 130.662L484.129 137.519Z" fill="#263238"/>
<path d="M481.502 130.662L560 99.4943L495.608 168.279L481.502 130.662Z" fill="#FFC727"/>
<path d="M470.742 118.81L438.117 95.7553L560 99.4943L470.742 118.81Z" fill="#FFC727"/>
<path d="M293.249 271.258C293.249 271.258 284.799 353.787 279.004 407.359C277.953 417.032 276.999 425.766 276.238 432.88C275.146 442.508 274.33 449.214 273.956 451.393C273.624 453.255 273.735 460.673 273.804 471.072C273.804 476.93 273.804 483.742 273.804 491.053C273.5 519.285 273.569 556.704 273.638 580.167C273.638 593.534 273.223 602.374 273.223 602.374H214.806C214.806 602.374 214.64 593.776 214.502 580.167C214.128 543.262 213.907 469.558 217.434 430.579C222.329 376.463 238.026 271.258 238.026 271.258H293.249Z" fill="#EB9481"/>
<path d="M173.62 653.599C176.788 654.749 267.18 654.462 270.623 652.085C271.923 651.192 272.656 636.766 273.085 619.328C273.177 615.553 273.251 611.683 273.306 607.717C273.376 603.04 273.431 598.302 273.459 593.7C273.569 573.038 273.306 554.842 273.306 554.842H214.515V593.7V607.717L214.82 619.328C214.82 619.328 180.245 636.388 176.746 639.46C173.247 642.533 170.467 652.524 173.62 653.599Z" fill="#EB9481"/>
<path d="M173.62 653.599C176.788 654.749 267.18 654.462 270.623 652.085C271.923 651.192 272.656 636.766 273.085 619.328C273.177 615.554 273.251 611.683 273.306 607.717C273.376 603.04 273.431 598.302 273.459 593.7H214.515V607.717L214.82 619.328C214.82 619.328 180.245 636.388 176.746 639.46C173.247 642.533 170.467 652.524 173.62 653.599Z" fill="white"/>
<path d="M173.344 653.75C175.405 654.492 265.479 656.127 270.886 652.236C272.463 651.086 273.237 629.954 273.652 607.626H214.515L214.82 619.297C214.82 619.297 180.065 636.448 176.525 639.536C172.984 642.624 170.177 652.524 173.344 653.75Z" fill="#FFC727"/>
<path d="M174.644 649.769C189.857 649.3 251.358 649.027 266.461 649.845C266.585 649.845 266.585 649.951 266.461 649.951C251.358 650.768 189.871 650.496 174.644 650.041C174.312 650.026 174.312 649.769 174.644 649.769Z" fill="#263238"/>
<path d="M212.607 615.574C218.595 614.317 225.925 615.316 230.586 619.963C230.752 620.145 230.517 620.418 230.323 620.357C224.59 618.357 218.679 617.027 212.69 616.391C212.591 616.403 212.492 616.372 212.414 616.303C212.336 616.235 212.286 616.136 212.275 616.028C212.264 615.919 212.293 615.811 212.355 615.725C212.417 615.64 212.508 615.586 212.607 615.574Z" fill="#263238"/>
<path d="M208.278 618.435C214.28 617.193 221.61 618.177 226.257 622.84C226.437 623.021 226.257 623.294 226.008 623.233C220.256 621.205 214.321 619.86 208.306 619.222C208.233 619.193 208.169 619.142 208.123 619.073C208.077 619.005 208.051 618.923 208.048 618.838C208.045 618.754 208.065 618.67 208.106 618.598C208.148 618.526 208.207 618.469 208.278 618.435V618.435Z" fill="#263238"/>
<path d="M203.963 621.311C209.952 620.054 217.295 621.053 221.942 625.701C222.122 625.882 221.873 626.155 221.679 626.094C215.947 624.093 210.036 622.763 204.046 622.128C203.947 622.14 203.848 622.109 203.77 622.041C203.692 621.972 203.642 621.873 203.631 621.765C203.62 621.656 203.649 621.548 203.711 621.463C203.774 621.377 203.864 621.323 203.963 621.311Z" fill="#263238"/>
<path d="M199.635 624.172C205.637 622.93 212.967 623.914 217.613 628.577C217.793 628.758 217.613 629.031 217.364 628.97C211.629 626.961 205.712 625.632 199.718 625.004C199.625 625 199.538 624.959 199.47 624.89C199.403 624.821 199.361 624.727 199.351 624.627C199.341 624.526 199.364 624.425 199.416 624.342C199.468 624.258 199.545 624.198 199.635 624.172V624.172Z" fill="#263238"/>
<path d="M204.198 609.761C208.444 613.364 213.976 614.817 218.927 616.815C219.041 616.845 219.16 616.846 219.274 616.818C219.388 616.79 219.495 616.734 219.586 616.653C219.677 616.573 219.749 616.47 219.798 616.354C219.847 616.238 219.871 616.11 219.868 615.982C219.892 615.982 219.916 615.975 219.938 615.962C219.959 615.949 219.977 615.931 219.991 615.908C220.004 615.886 220.013 615.86 220.016 615.834C220.018 615.807 220.015 615.78 220.006 615.755C218.169 609.95 214.974 604.773 210.74 600.739C208.223 598.453 203.825 596.864 201.488 600.421C199.15 603.978 201.723 607.672 204.198 609.761ZM202.663 604.493C201.585 597.288 208.652 601.057 210.45 602.828C211.587 603.993 212.65 605.242 213.63 606.567C215.607 609.338 217.454 612.218 219.162 615.195C216.784 614.06 214.336 613.152 211.929 612.168C209.094 610.866 203.258 608.459 202.663 604.493V604.493Z" fill="#263238"/>
<path d="M240.004 605.689C238.538 601.602 233.919 601.935 230.973 603.464C225.934 606.201 221.641 610.341 218.526 615.468C218.512 615.489 218.503 615.515 218.499 615.541C218.496 615.568 218.498 615.595 218.506 615.62C218.515 615.645 218.528 615.668 218.546 615.686C218.564 615.705 218.586 615.718 218.609 615.725C218.512 616.225 218.789 616.845 219.328 616.785C224.584 616.209 230.268 616.315 235.205 613.984C238.123 612.637 241.387 609.549 240.004 605.689ZM227.17 614.136C224.597 614.484 222.025 614.696 219.453 615.15C221.805 612.736 224.27 610.458 226.838 608.323C228.093 607.303 229.41 606.378 230.779 605.553C232.909 604.327 240.626 602.631 237.943 609.307C236.464 612.985 230.254 613.712 227.17 614.136Z" fill="#263238"/>
<path d="M293.249 271.258C293.249 271.258 284.799 353.787 279.004 407.359C277.953 417.031 276.999 425.766 276.238 432.88C275.146 442.508 274.33 449.214 273.956 451.393C273.624 453.255 273.735 460.673 273.804 471.072C273.804 476.93 273.804 483.742 273.804 491.053C273.5 519.285 273.569 556.704 273.638 580.167H214.516C214.142 543.262 213.921 469.558 217.447 430.579C222.329 376.463 238.026 271.258 238.026 271.258H293.249Z" fill="#455A64"/>
<path d="M273.749 471.102C273.68 460.673 273.569 453.255 273.901 451.424C276.114 438.663 293.263 271.289 293.263 271.289H246.048L273.749 471.102Z" fill="#263238"/>
<path d="M477.961 450.864C477.961 450.864 475.983 451.742 472.429 453.225C469.331 454.542 465.016 456.253 459.775 458.387L457.728 459.174L457.355 459.325L456.068 459.825C420.111 473.782 349.412 497.88 317.078 485.649C284.744 473.418 238.925 270.592 238.026 271.258H316.4C316.4 271.258 330.977 312.417 318.544 338.317C317.396 340.709 346.384 425.206 363.92 422.89C377.611 421.073 415.796 405.391 439.887 397.277L443.815 395.96L448.199 394.447H448.268L455.737 391.934L460.771 390.238L477.961 450.864Z" fill="#EB9481"/>
<path d="M537.969 477.929C538.038 474.281 511.139 379.824 508.027 376.933C506.866 375.828 494.059 379.324 478.722 384.017C475.403 385.016 471.931 385.924 468.515 387.196C464.228 388.8 423.236 403.423 423.236 403.423L440.095 465.759L472.54 453.649L485.844 448.699L495.885 444.975C495.885 444.975 520.972 476.082 524.679 478.853C528.385 481.623 537.9 481.562 537.969 477.929Z" fill="#EB9481"/>
<path d="M537.969 477.929C538.038 474.281 511.139 379.824 508.027 376.933C506.866 375.828 494.059 379.324 478.722 384.017C475.403 385.016 471.931 385.924 468.515 387.196C464.228 388.8 459.844 390.147 455.737 391.737C460.854 410.189 468.114 437.058 472.54 453.588L485.844 448.638L495.885 444.915C495.885 444.915 520.972 476.022 524.679 478.792C528.385 481.562 537.9 481.562 537.969 477.929Z" fill="white"/>
<path d="M538.135 478.171C538.204 474.508 511.153 379.521 508.027 376.615C506.644 375.267 487.891 380.732 468.294 386.938L485.72 448.775L495.816 445.021C495.816 445.021 521.041 476.325 524.775 479.11C528.509 481.895 538.135 481.835 538.135 478.171Z" fill="#FFC727"/>
<path d="M534.318 478.005C529.422 462.201 511.056 397.958 507.322 381.943C507.322 381.807 507.322 381.776 507.419 381.943C512.577 397.489 530.459 461.884 534.553 477.944C534.636 478.262 534.415 478.338 534.318 478.005Z" fill="#263238"/>
<path d="M493.271 448.366C490.422 442.478 489.122 434.5 491.888 428.324C491.985 428.082 492.303 428.248 492.303 428.475C492.228 435.085 492.812 441.683 494.045 448.154C494.071 448.266 494.055 448.385 494 448.485C493.946 448.584 493.858 448.656 493.755 448.684C493.652 448.712 493.543 448.694 493.453 448.635C493.362 448.575 493.296 448.478 493.271 448.366V448.366Z" fill="#263238"/>
<path d="M497.046 452.044C494.197 446.141 492.897 438.178 495.663 432.002C495.774 431.76 496.078 431.927 496.078 432.154C496.012 438.763 496.596 445.36 497.821 451.832C497.847 451.945 497.83 452.064 497.776 452.163C497.721 452.262 497.633 452.334 497.53 452.362C497.428 452.39 497.319 452.373 497.228 452.313C497.137 452.253 497.072 452.157 497.046 452.044V452.044Z" fill="#263238"/>
<path d="M500.794 455.738C497.945 449.834 496.645 441.872 499.411 435.696C499.522 435.454 499.826 435.62 499.826 435.847C499.767 442.456 500.351 449.053 501.569 455.526C501.594 455.638 501.578 455.757 501.524 455.857C501.469 455.956 501.381 456.028 501.278 456.056C501.176 456.084 501.067 456.066 500.976 456.006C500.885 455.947 500.82 455.85 500.794 455.738V455.738Z" fill="#263238"/>
<path d="M504.597 459.386C501.748 453.482 500.448 445.52 503.214 439.344C503.325 439.102 503.629 439.268 503.629 439.495C503.568 446.104 504.153 452.701 505.372 459.174C505.398 459.286 505.381 459.405 505.327 459.505C505.273 459.604 505.184 459.676 505.082 459.704C504.979 459.732 504.87 459.714 504.779 459.655C504.689 459.595 504.623 459.498 504.597 459.386V459.386Z" fill="#263238"/>
<path d="M492.317 440.873C492.208 440.764 492.077 440.686 491.935 440.646C491.792 440.607 491.643 440.607 491.501 440.646C491.485 440.627 491.466 440.611 491.444 440.6C491.423 440.59 491.4 440.584 491.376 440.584C491.353 440.584 491.329 440.59 491.308 440.6C491.286 440.611 491.267 440.627 491.252 440.646L490.823 440.994H490.74L490.574 441.13C490.362 441.302 490.154 441.483 489.952 441.675C488.213 443.231 486.628 444.981 485.222 446.898C484.572 447.776 483.949 448.699 483.382 449.637C482.404 451.238 481.566 452.936 480.879 454.709C479.621 458.008 479.496 463.064 483.327 464.472C487.158 465.88 489.578 462.096 490.685 458.886C491.869 454.838 492.43 450.602 492.344 446.353C492.344 446.353 492.344 446.353 492.344 446.353C492.344 444.718 492.413 443.098 492.496 441.509C492.528 441.395 492.528 441.274 492.496 441.16C492.464 441.047 492.401 440.947 492.317 440.873V440.873ZM490.629 446.928C490.629 447.957 490.505 448.971 490.436 449.955C490.201 453.331 489.827 460.158 486.536 461.944C480.561 465.199 481.764 456.691 482.788 454.3C483.47 452.761 484.246 451.274 485.111 449.849C485.346 449.441 485.595 449.047 485.844 448.654C487.352 446.307 489.039 444.112 490.685 441.902L490.92 441.569C490.92 441.569 490.92 441.675 490.92 441.721C490.913 441.821 490.913 441.923 490.92 442.023C490.768 443.673 490.671 445.308 490.588 446.943L490.629 446.928Z" fill="#263238"/>
<path d="M492.344 440.933C491.68 439.178 491.044 437.346 490.38 435.529C489.199 431.808 487.466 428.325 485.25 425.221C483.562 423.041 480.755 420.952 478.169 421.8C477.598 421.978 477.066 422.282 476.606 422.693C473.466 425.418 475.112 430.156 477.325 432.79C478.912 434.655 480.7 436.301 482.649 437.694C484.926 439.373 487.389 440.726 489.979 441.721C490.242 441.827 490.491 441.917 490.754 441.993L490.989 442.069H491.086L491.445 442.19C491.47 442.199 491.496 442.202 491.522 442.199C491.548 442.195 491.573 442.185 491.595 442.168C491.616 442.152 491.634 442.13 491.647 442.105C491.659 442.08 491.666 442.052 491.667 442.023C491.784 442.019 491.898 441.984 492.001 441.922C492.104 441.86 492.192 441.772 492.258 441.666C492.324 441.56 492.366 441.439 492.381 441.311C492.396 441.184 492.383 441.054 492.344 440.933ZM490.574 441.115C487.879 439.433 485.267 437.599 482.746 435.62L481.834 434.848C480.904 434.057 480.018 433.208 479.178 432.305C477.643 430.625 474.421 424.282 478.694 423.707C479.241 423.632 479.793 423.632 480.34 423.707C483.977 424.161 486.453 430.443 487.725 433.531C488.748 436.014 489.647 438.527 490.74 440.964C490.785 441.083 490.836 441.199 490.892 441.312L490.574 441.115Z" fill="#263238"/>
<path d="M459.775 458.387L457.728 459.174L457.355 459.325L456.068 459.825C420.111 473.782 349.412 497.88 317.078 485.649C284.744 473.418 238.925 270.592 238.026 271.258H316.4C316.4 271.258 330.977 312.417 318.544 338.317C317.396 340.709 346.384 425.206 363.92 422.89C377.611 421.073 415.796 405.391 439.887 397.277L443.815 395.96L459.775 458.387Z" fill="#455A64"/>
<path d="M236.505 192.574C236.511 192.783 236.585 192.982 236.715 193.135C236.845 193.288 237.021 193.385 237.21 193.407L240.267 193.165C242.065 184.43 244.25 177.361 243.766 180.056C243.061 184.299 242.898 188.63 243.282 192.922L249.312 192.332C250.031 177.316 251.842 165.993 252.077 169.369C252.838 182.992 254 187.261 255.327 191.772C269.89 190.258 288.962 188.199 302.723 186.307C303.4 177.951 303.815 168.975 304.106 169.55C306.498 173.849 307.743 180.404 308.365 185.505C312.735 184.869 316.221 184.264 318.337 183.764C318.337 183.764 318.599 176.801 318.489 174.546C318.245 168.758 317.079 163.061 315.045 157.713C312.804 152.476 310.084 147.5 306.927 142.863L306.844 142.757C304.883 139.643 303.259 136.29 302.003 132.766V132.766C301.132 130.181 300.453 127.523 299.97 124.819C298.214 114.919 292.447 107.002 284.135 105.595C267.152 91.199 252.783 100.569 249.643 114.087C249.339 115.404 249.076 116.902 248.841 118.537C247.942 124.592 247.458 132.282 246.767 138.216C246.546 140.563 246.195 142.893 245.716 145.194C242.964 156.305 234.887 163.586 236.505 192.574Z" fill="#263238"/>
<path d="M287.814 107.684C290.59 108.739 293.068 110.565 295.008 112.981C296.947 115.398 298.28 118.324 298.878 121.474C299.588 125.652 300.763 129.719 302.377 133.584C304.344 137.288 306.795 140.659 309.651 143.589C313.966 148.418 317.161 153.399 318.544 160.468C319.927 167.537 320.605 176.286 319.277 183.401C320.015 175.425 319.354 167.369 317.327 159.665C315.294 151.93 310.91 147.555 306.332 142.106C302.645 137.814 300.043 132.545 298.781 126.817C297.979 123.275 297.605 119.506 296.015 116.221C294.093 112.391 290.856 110.272 287.717 108.425C287.136 108.229 287.427 107.578 287.814 107.684Z" fill="#263238"/>
<path d="M238.026 157.834C241.097 151.597 244.416 146.163 245.799 138.791C247.071 132.07 247.431 125.167 248.731 118.416C248.731 118.31 248.897 118.325 248.869 118.416C247.043 130.253 247.735 141.834 242.549 152.354C239.783 158.076 236.865 163.404 235.329 169.989C233.788 176.889 233.376 184.033 234.112 191.091C234.112 191.348 233.863 191.363 233.808 191.091C231.612 179.806 233.105 168.037 238.026 157.834V157.834Z" fill="#263238"/>
<path d="M261.911 189.441C249.671 202.444 204.392 226.618 188.239 220.412C177.7 216.37 147.482 184.082 141.535 174.515C134.62 163.344 156.264 141.697 162.363 146.011C169.983 151.416 193.605 179.617 200.782 184.097C204.931 186.686 233.863 176.317 261.717 169.989C272.518 167.522 269.227 181.751 261.911 189.441Z" fill="#EB9481"/>
<path d="M162.764 157.667C162.764 157.667 144.564 143.605 143.402 143.256C142.24 142.908 141.784 144.619 141.341 145.936C141.238 146.778 141.21 147.63 141.259 148.479C141.259 152.49 141.259 159.575 136.625 158.712C130.623 157.576 130.817 141.652 131.204 139.169C131.511 138.098 132.025 137.112 132.712 136.278C135.021 133.145 139.627 129.224 143.983 129.966C150.013 130.98 155.6 135.007 160.676 138.125L162.764 157.667Z" fill="#EB9481"/>
<path d="M162.764 157.667C162.764 157.667 144.564 143.605 143.402 143.256C142.24 142.908 141.784 144.619 141.342 145.936C141.238 146.778 141.21 147.63 141.259 148.479C138.202 144.15 134.841 139.396 132.712 136.278C135.021 133.145 139.627 129.224 143.983 129.966C150.013 130.98 155.6 135.007 160.676 138.125L162.764 157.667Z" fill="#263238"/>
<path d="M154.189 190.016C153.429 188.85 145.56 180.056 139.627 173.365C140.456 166.265 140.595 151.9 140.636 148.1C141.355 143.877 140.636 134.477 140.304 134.477C139.585 134.477 137.04 134.477 133.943 134.144C129.794 133.735 124.842 132.857 121.828 130.95C121.083 130.595 120.442 130.023 119.974 129.297C119.506 128.571 119.229 127.719 119.172 126.832C119.172 123.805 125.423 123.487 132.781 122.503C142.794 121.156 155.171 120.096 159.154 124.138C165.032 130.193 167.646 143.045 168.835 146.844C170.025 150.644 177.327 160.861 177.327 160.861C171.919 181.403 155.199 191.56 154.189 190.016Z" fill="#EB9481"/>
<path d="M102.687 122.412C102.687 122.412 115.881 127.347 129.738 131.797C143.596 136.248 171.56 152.415 171.712 153.716C171.864 155.018 140.927 145.043 127.83 138.897C114.733 132.751 101.843 125.621 101.843 125.621L102.687 122.412Z" fill="#455A64"/>
<path d="M102.452 122.14L111.676 125.092L109.74 130.375L101.249 125.773L102.452 122.14Z" fill="#EBEBEB"/>
<path d="M102.493 122.14C101.764 121.09 100.816 120.246 99.7292 119.677C98.642 119.109 97.4467 118.832 96.2423 118.87C95.2334 118.949 94.2206 118.798 93.2682 118.425C92.3158 118.052 91.4447 117.467 90.7103 116.705C90.7103 116.705 93.3242 126.393 101.221 125.788L102.493 122.14Z" fill="#455A64"/>
<path d="M90.4614 116.418C91.0146 116.418 92.5358 118.431 94.6103 118.628C96.6848 118.825 95.8274 125.182 93.8912 123.078C91.6784 120.702 89.4656 116.357 90.4614 116.418Z" fill="#FFC727"/>
<path d="M139.627 173.44C137.594 171.185 135.768 169.217 134.496 167.9C130.536 164.092 128.061 158.766 127.581 153.02C126.945 147.949 116.738 137.323 124.414 136.535C132.089 135.748 138.147 151.204 139.931 150.068C140.263 149.856 140.512 149.16 140.678 148.176C140.595 151.976 140.456 166.341 139.627 173.44Z" fill="#EB9481"/>
<path d="M140.899 145.421C140.899 145.224 140.775 145.255 140.747 145.421C140.747 146.117 140.318 149.251 139.668 149.251C138.506 149.251 134.482 142.984 132.366 140.683C132.241 140.562 132.076 140.683 132.2 140.834C132.795 141.41 134.579 144.15 135.035 144.8C135.906 146.072 138.313 150.129 139.765 150.129C140.733 150.22 140.968 146.223 140.899 145.421Z" fill="#263238"/>
<path d="M220.573 178.178L226.7 199.144C228.968 207.046 231.07 214.281 231.208 215.114C242.263 208.443 252.779 200.756 262.644 192.135C275.948 180.313 274.551 170.398 266.792 168.869C265.613 168.658 264.413 168.618 263.224 168.748C252.658 169.823 220.573 178.178 220.573 178.178Z" fill="#FFC727"/>
<path d="M242.549 180.464H241.47C241.202 180.472 240.935 180.422 240.686 180.315C240.436 180.208 240.208 180.048 240.016 179.843C239.824 179.639 239.671 179.394 239.567 179.123C239.463 178.853 239.409 178.563 239.409 178.269C239.392 177.881 239.238 177.515 238.981 177.248C238.723 176.98 238.381 176.831 238.026 176.831H236.892V176.074H238.026C238.291 176.072 238.553 176.128 238.798 176.237C239.043 176.346 239.266 176.508 239.453 176.712C239.641 176.916 239.79 177.159 239.891 177.426C239.993 177.693 240.045 177.98 240.045 178.269C240.033 178.472 240.061 178.674 240.126 178.864C240.191 179.054 240.292 179.226 240.423 179.369C240.554 179.513 240.712 179.624 240.885 179.695C241.058 179.766 241.244 179.796 241.428 179.783H242.507L242.549 180.464ZM230.724 193.694C230.979 193.439 231.312 193.297 231.658 193.297C232.003 193.297 232.336 193.439 232.591 193.694C232.972 194.095 233.48 194.319 234.009 194.319C234.537 194.319 235.045 194.095 235.426 193.694L236.228 192.801L235.744 192.271L234.928 193.149C234.674 193.4 234.344 193.539 234.002 193.539C233.659 193.539 233.329 193.4 233.075 193.149C232.701 192.764 232.206 192.55 231.692 192.55C231.178 192.55 230.684 192.764 230.309 193.149L229.535 193.997L230.033 194.527L230.724 193.694Z" fill="white"/>
<path d="M226.7 199.144C228.968 207.045 231.07 214.281 231.208 215.114C242.263 208.443 252.779 200.756 262.644 192.135C275.948 180.313 274.551 170.398 266.793 168.869L226.7 199.144Z" fill="#263238"/>
<path d="M339.745 392.509H217.281L217.987 387.695L233.324 282.672L233.532 281.294L240.737 231.916C240.737 231.916 234.403 221.426 236.325 211.95C237.293 207.151 247.389 187.987 252.755 180.161C254.465 177.545 256.365 175.084 258.439 172.805C264.331 166.75 272.269 165.978 277.926 166.886C278.923 167.055 279.905 167.324 280.858 167.688C288.989 170.716 298.989 181.161 304.368 196.934C306.235 202.413 308.089 208.801 309.9 215.871C309.983 216.219 310.066 216.567 310.163 216.915C315.515 237.941 320.632 264.704 325.044 290.967C327.547 305.817 329.829 320.515 331.807 333.912L332.056 335.683C336.799 368.138 339.745 392.509 339.745 392.509Z" fill="#FFC727"/>
<path d="M278.838 277.026H277.746C277.214 277.026 276.704 276.794 276.328 276.383C275.952 275.971 275.74 275.413 275.74 274.831C275.74 274.429 275.595 274.044 275.335 273.76C275.076 273.477 274.724 273.317 274.357 273.317H273.21V272.575H274.357C274.891 272.579 275.401 272.814 275.776 273.228C276.152 273.642 276.363 274.202 276.363 274.785C276.38 275.161 276.523 275.516 276.766 275.782C277.009 276.048 277.334 276.205 277.677 276.223H278.769L278.838 277.026ZM296.015 343.555H294.936C294.593 343.536 294.269 343.379 294.026 343.113C293.783 342.847 293.639 342.492 293.623 342.117C293.623 341.534 293.411 340.976 293.035 340.564C292.659 340.153 292.149 339.922 291.617 339.922H290.469V340.678H291.617C291.96 340.697 292.285 340.854 292.528 341.12C292.77 341.386 292.914 341.741 292.931 342.117C292.931 342.699 293.142 343.257 293.518 343.669C293.894 344.08 294.405 344.311 294.936 344.311H296.015V343.555ZM317.41 279.977H316.331C315.977 279.958 315.642 279.79 315.398 279.508C315.153 279.226 315.017 278.852 315.017 278.464C315.014 277.88 314.799 277.322 314.421 276.911C314.043 276.5 313.531 276.269 312.998 276.269H311.85V277.026H312.998C313.353 277.025 313.695 277.174 313.952 277.442C314.21 277.71 314.363 278.076 314.381 278.464C314.381 279.046 314.592 279.604 314.969 280.016C315.345 280.427 315.855 280.659 316.387 280.659H317.465L317.41 279.977ZM262.727 245.752H261.634C261.291 245.733 260.966 245.576 260.724 245.31C260.481 245.044 260.337 244.689 260.32 244.314C260.32 243.732 260.109 243.173 259.733 242.762C259.357 242.35 258.847 242.119 258.315 242.119H257.167V242.876H258.315C258.67 242.875 259.012 243.024 259.269 243.292C259.527 243.56 259.68 243.926 259.698 244.314C259.698 244.896 259.909 245.454 260.285 245.866C260.661 246.277 261.171 246.509 261.703 246.509H262.796L262.727 245.752ZM242.549 217.445H241.47C241.115 217.445 240.773 217.296 240.516 217.029C240.258 216.761 240.105 216.395 240.087 216.007C240.087 215.717 240.035 215.431 239.933 215.163C239.831 214.896 239.682 214.653 239.495 214.449C239.307 214.245 239.084 214.084 238.839 213.975C238.595 213.865 238.332 213.81 238.068 213.812H236.934V214.569H238.068C238.435 214.569 238.786 214.728 239.046 215.012C239.305 215.296 239.451 215.681 239.451 216.083C239.451 216.665 239.662 217.223 240.038 217.635C240.414 218.046 240.924 218.277 241.456 218.277H242.535L242.549 217.445ZM296.389 244.98H295.296C294.941 244.98 294.599 244.831 294.342 244.564C294.084 244.296 293.931 243.93 293.913 243.542C293.913 242.96 293.702 242.401 293.326 241.99C292.95 241.578 292.439 241.347 291.908 241.347H290.76V242.104H291.963C292.318 242.123 292.652 242.291 292.896 242.573C293.141 242.855 293.277 243.229 293.277 243.617C293.277 244.2 293.488 244.758 293.864 245.17C294.24 245.581 294.75 245.812 295.282 245.812H296.375L296.389 244.98ZM276.473 206.47H275.367C275.024 206.452 274.699 206.295 274.457 206.029C274.214 205.763 274.07 205.408 274.053 205.032C274.053 204.45 273.842 203.892 273.466 203.48C273.09 203.069 272.58 202.837 272.048 202.837H270.9V203.594H272.048C272.403 203.614 272.737 203.782 272.981 204.063C273.226 204.345 273.362 204.719 273.362 205.108C273.362 205.69 273.573 206.248 273.949 206.66C274.325 207.072 274.835 207.303 275.367 207.303H276.46L276.473 206.47ZM254.456 304.364H253.378C253.023 304.344 252.689 304.176 252.444 303.895C252.199 303.613 252.063 303.239 252.064 302.85C252.06 302.267 251.846 301.708 251.467 301.297C251.089 300.886 250.578 300.655 250.045 300.655H248.897V301.412H250.045C250.411 301.412 250.763 301.572 251.022 301.855C251.282 302.139 251.428 302.524 251.428 302.926C251.428 303.509 251.638 304.069 252.014 304.483C252.39 304.897 252.9 305.132 253.433 305.136H254.512L254.456 304.364ZM282.393 367.457H281.3C280.933 367.457 280.582 367.297 280.322 367.013C280.063 366.729 279.917 366.344 279.917 365.943C279.917 365.361 279.706 364.802 279.33 364.391C278.954 363.979 278.444 363.748 277.912 363.748H276.764V364.505H277.912C278.255 364.523 278.579 364.68 278.822 364.946C279.065 365.212 279.209 365.567 279.226 365.943C279.226 366.525 279.437 367.083 279.813 367.495C280.189 367.906 280.699 368.138 281.231 368.138H282.323L282.393 367.457ZM318.668 388.936H317.576C317.221 388.917 316.887 388.749 316.642 388.467C316.398 388.185 316.262 387.811 316.262 387.423C316.262 386.841 316.051 386.282 315.675 385.871C315.299 385.459 314.789 385.228 314.257 385.228H313.109V385.985H314.257C314.6 386.003 314.924 386.16 315.167 386.426C315.41 386.692 315.554 387.047 315.571 387.423C315.571 388.006 315.781 388.566 316.157 388.98C316.533 389.394 317.043 389.629 317.576 389.633H318.668V388.936ZM242.438 373.996H241.346C240.99 373.996 240.649 373.847 240.391 373.58C240.134 373.312 239.98 372.946 239.963 372.558C239.963 371.976 239.751 371.417 239.375 371.006C238.999 370.594 238.489 370.363 237.957 370.363H236.809V371.12H238.026C238.369 371.138 238.694 371.296 238.937 371.561C239.18 371.827 239.323 372.182 239.34 372.558C239.34 373.14 239.551 373.698 239.928 374.11C240.304 374.522 240.814 374.753 241.346 374.753H242.438V373.996ZM273.099 332.913H272.006C271.663 332.895 271.339 332.737 271.096 332.471C270.853 332.206 270.709 331.85 270.693 331.475C270.693 330.893 270.481 330.335 270.105 329.923C269.729 329.511 269.219 329.28 268.687 329.28H267.539V330.037H268.687C269.042 330.036 269.384 330.185 269.641 330.453C269.899 330.721 270.052 331.087 270.07 331.475C270.07 332.057 270.281 332.615 270.658 333.027C271.034 333.439 271.544 333.67 272.076 333.67H273.168L273.099 332.913ZM239.658 338.968H238.566C238.223 338.95 237.898 338.792 237.655 338.526C237.412 338.261 237.269 337.905 237.252 337.53C237.252 336.946 237.041 336.386 236.665 335.972C236.29 335.558 235.78 335.324 235.247 335.32H234.099V336.077H235.26C235.615 336.096 235.949 336.264 236.194 336.546C236.438 336.828 236.575 337.202 236.574 337.59C236.574 338.173 236.785 338.731 237.162 339.142C237.538 339.554 238.048 339.785 238.58 339.785H239.672L239.658 338.968ZM288.492 305.227H287.399C287.056 305.208 286.731 305.051 286.489 304.785C286.246 304.519 286.102 304.164 286.085 303.789C286.085 303.206 285.874 302.648 285.498 302.237C285.122 301.825 284.612 301.594 284.08 301.594H282.932V302.351H284.08C284.435 302.37 284.769 302.538 285.013 302.82C285.258 303.102 285.394 303.476 285.394 303.864C285.394 304.446 285.605 305.005 285.981 305.416C286.357 305.828 286.867 306.059 287.399 306.059H288.492V305.227ZM331.254 350.639H330.161C329.806 350.619 329.472 350.451 329.228 350.17C328.983 349.888 328.847 349.514 328.847 349.125C328.844 348.544 328.631 347.988 328.256 347.577C327.881 347.167 327.373 346.934 326.842 346.93H325.694V347.687H326.842C327.185 347.705 327.509 347.863 327.752 348.129C327.995 348.394 328.139 348.75 328.156 349.125C328.156 349.709 328.367 350.269 328.742 350.683C329.118 351.097 329.628 351.331 330.161 351.335H331.254V350.639ZM254.788 262.736C255.042 262.485 255.372 262.346 255.715 262.346C256.057 262.346 256.387 262.485 256.641 262.736C257.016 263.121 257.51 263.336 258.024 263.336C258.538 263.336 259.033 263.121 259.407 262.736L260.223 261.843L259.739 261.313L258.923 262.206C258.668 262.461 258.335 262.603 257.99 262.603C257.644 262.603 257.311 262.461 257.056 262.206C256.675 261.806 256.167 261.582 255.639 261.582C255.11 261.582 254.602 261.806 254.221 262.206L253.461 263.039L253.945 263.569L254.788 262.736ZM242.341 240.03C242.595 239.779 242.926 239.64 243.268 239.64C243.61 239.64 243.94 239.779 244.194 240.03C244.38 240.235 244.6 240.399 244.844 240.51C245.087 240.621 245.348 240.679 245.612 240.679C245.876 240.679 246.137 240.621 246.38 240.51C246.624 240.399 246.844 240.235 247.03 240.03L247.846 239.152L247.362 238.607L246.546 239.5C246.291 239.751 245.961 239.89 245.619 239.89C245.277 239.89 244.946 239.751 244.692 239.5C244.309 239.099 243.799 238.874 243.268 238.874C242.737 238.874 242.227 239.099 241.843 239.5L241.083 240.348L241.567 240.878L242.341 240.03ZM305.005 302.335C305.259 302.084 305.589 301.945 305.931 301.945C306.273 301.945 306.604 302.084 306.858 302.335C307.235 302.714 307.729 302.924 308.241 302.924C308.753 302.924 309.246 302.714 309.624 302.335L310.44 301.442L309.956 300.913L309.14 301.806C308.886 302.057 308.555 302.196 308.213 302.196C307.871 302.196 307.541 302.057 307.286 301.806C307.1 301.6 306.878 301.436 306.634 301.325C306.389 301.213 306.127 301.156 305.862 301.156C305.597 301.156 305.335 301.213 305.09 301.325C304.846 301.436 304.624 301.6 304.437 301.806L303.677 302.638L304.161 303.183L305.005 302.335ZM273.652 228.662C273.906 228.411 274.236 228.272 274.579 228.272C274.921 228.272 275.251 228.411 275.505 228.662C275.887 229.062 276.394 229.286 276.923 229.286C277.451 229.286 277.959 229.062 278.34 228.662L279.156 227.769L278.672 227.239L277.856 228.117C277.601 228.372 277.268 228.514 276.923 228.514C276.577 228.514 276.244 228.372 275.989 228.117C275.605 227.723 275.098 227.504 274.572 227.504C274.045 227.504 273.539 227.723 273.154 228.117L272.394 228.964L272.878 229.494L273.652 228.662ZM266.433 181.327C266.688 181.072 267.021 180.93 267.366 180.93C267.712 180.93 268.045 181.072 268.3 181.327C268.678 181.735 269.187 181.963 269.718 181.963C270.248 181.963 270.757 181.735 271.135 181.327L271.951 180.434L271.453 179.904L270.651 180.782C270.396 181.037 270.063 181.179 269.718 181.179C269.372 181.179 269.039 181.037 268.784 180.782C268.41 180.397 267.915 180.182 267.401 180.182C266.887 180.182 266.393 180.397 266.018 180.782L265.244 181.63L265.741 182.16L266.433 181.327ZM252.313 207.136C252.567 206.885 252.897 206.746 253.239 206.746C253.582 206.746 253.912 206.885 254.166 207.136C254.351 207.342 254.572 207.505 254.815 207.616C255.059 207.728 255.32 207.785 255.583 207.785C255.847 207.785 256.108 207.728 256.352 207.616C256.595 207.505 256.816 207.342 257.001 207.136L257.817 206.258L257.333 205.713L256.517 206.607C256.262 206.862 255.929 207.003 255.583 207.003C255.238 207.003 254.905 206.862 254.65 206.607C254.275 206.221 253.781 206.007 253.267 206.007C252.753 206.007 252.258 206.221 251.884 206.607L251.123 207.454L251.607 207.984L252.313 207.136ZM274.717 253.775C274.734 253.399 274.878 253.044 275.12 252.778C275.363 252.512 275.688 252.355 276.031 252.337C276.563 252.337 277.073 252.105 277.449 251.694C277.825 251.282 278.036 250.724 278.036 250.142V248.885H277.345V250.142C277.345 250.53 277.209 250.904 276.964 251.186C276.72 251.468 276.386 251.636 276.031 251.655C275.499 251.655 274.989 251.887 274.613 252.298C274.237 252.71 274.026 253.268 274.026 253.85V255.046H274.717V253.775ZM267.346 313.446C267.363 313.058 267.517 312.692 267.774 312.425C268.032 312.157 268.374 312.008 268.729 312.008C269.261 312.008 269.771 311.777 270.147 311.365C270.523 310.954 270.734 310.395 270.734 309.813V308.557H270.043V309.813C270.043 310.202 269.907 310.576 269.662 310.858C269.418 311.14 269.083 311.308 268.729 311.327C268.465 311.317 268.203 311.364 267.956 311.465C267.709 311.566 267.483 311.719 267.29 311.916C267.097 312.113 266.942 312.349 266.833 312.612C266.724 312.874 266.663 313.158 266.654 313.446V314.642H267.346V313.446ZM305.793 357.981C305.811 357.592 305.964 357.226 306.222 356.959C306.479 356.691 306.821 356.542 307.176 356.542C307.708 356.542 308.218 356.311 308.594 355.9C308.97 355.488 309.181 354.93 309.181 354.348V353.091H308.49V354.317C308.49 354.706 308.354 355.08 308.109 355.362C307.865 355.644 307.53 355.812 307.176 355.831C306.643 355.831 306.131 356.062 305.753 356.473C305.375 356.884 305.16 357.442 305.157 358.026V359.222H305.848L305.793 357.981ZM332.388 386.984C332.404 386.608 332.548 386.253 332.791 385.987C333.034 385.721 333.359 385.564 333.702 385.546C334.233 385.546 334.743 385.314 335.12 384.903C335.496 384.491 335.707 383.933 335.707 383.351V382.094H335.015V383.351C334.998 383.739 334.844 384.105 334.587 384.373C334.329 384.64 333.988 384.789 333.632 384.789C333.101 384.789 332.591 385.02 332.214 385.432C331.838 385.843 331.627 386.402 331.627 386.984V388.18H332.319L332.388 386.984ZM322.707 303.017C322.695 302.821 322.721 302.625 322.782 302.441C322.843 302.256 322.938 302.088 323.062 301.946C323.185 301.804 323.334 301.691 323.499 301.615C323.664 301.538 323.842 301.5 324.021 301.503C324.554 301.499 325.064 301.264 325.439 300.85C325.815 300.436 326.026 299.876 326.026 299.293V298.036H325.334V299.293C325.335 299.681 325.199 300.055 324.954 300.337C324.71 300.619 324.375 300.787 324.021 300.807C323.489 300.807 322.979 301.038 322.603 301.449C322.227 301.861 322.015 302.419 322.015 303.001V304.182H322.707V303.017ZM237.21 315.626C237.228 315.238 237.382 314.872 237.639 314.604C237.897 314.337 238.238 314.188 238.593 314.188C239.125 314.188 239.635 313.957 240.011 313.545C240.387 313.134 240.599 312.575 240.599 311.993V310.737H239.907V311.933C239.919 312.128 239.893 312.324 239.832 312.509C239.771 312.693 239.676 312.861 239.552 313.004C239.429 313.146 239.28 313.258 239.115 313.335C238.95 313.411 238.772 313.449 238.593 313.446C238.062 313.446 237.551 313.678 237.175 314.089C236.799 314.501 236.588 315.059 236.588 315.641V316.837H237.28L237.21 315.626ZM238.87 261.979C238.887 261.604 239.031 261.248 239.273 260.983C239.516 260.717 239.841 260.559 240.184 260.541C240.713 260.537 241.22 260.304 241.593 259.893C241.966 259.482 242.175 258.926 242.175 258.346V257.09H241.484V258.346C241.484 258.748 241.338 259.133 241.079 259.417C240.819 259.7 240.468 259.86 240.101 259.86C239.569 259.86 239.059 260.091 238.683 260.503C238.307 260.914 238.095 261.473 238.095 262.055V263.251H238.787L238.87 261.979ZM256.752 227.163C256.752 226.774 256.888 226.4 257.132 226.119C257.377 225.837 257.711 225.669 258.066 225.649C258.598 225.649 259.108 225.418 259.484 225.006C259.86 224.595 260.071 224.037 260.071 223.454V222.198H259.38V223.454C259.363 223.83 259.219 224.185 258.976 224.451C258.733 224.717 258.409 224.874 258.066 224.892C257.534 224.892 257.024 225.124 256.648 225.535C256.272 225.947 256.061 226.505 256.061 227.087V228.283H256.752V227.163ZM249.989 192.09C250.007 191.702 250.16 191.336 250.418 191.068C250.675 190.8 251.017 190.651 251.372 190.652C251.905 190.648 252.415 190.413 252.791 189.999C253.167 189.585 253.378 189.025 253.378 188.442V187.185H252.686V188.442C252.686 188.83 252.55 189.204 252.306 189.486C252.061 189.768 251.727 189.936 251.372 189.955C250.84 189.955 250.33 190.187 249.954 190.598C249.578 191.01 249.367 191.568 249.367 192.15V193.331H250.058L249.989 192.09ZM251.953 281.083C251.953 280.694 252.089 280.32 252.333 280.038C252.578 279.756 252.912 279.588 253.267 279.569C253.799 279.569 254.309 279.338 254.685 278.926C255.061 278.514 255.272 277.956 255.272 277.374V276.117H254.622V277.374C254.605 277.749 254.462 278.105 254.219 278.37C253.976 278.636 253.651 278.794 253.308 278.812C252.777 278.812 252.266 279.043 251.89 279.455C251.514 279.866 251.303 280.425 251.303 281.007V282.203H251.995L251.953 281.083ZM295.061 288.333C295.06 287.945 295.197 287.571 295.441 287.289C295.686 287.007 296.02 286.839 296.375 286.82C296.907 286.82 297.417 286.588 297.793 286.177C298.169 285.765 298.38 285.207 298.38 284.625V283.368H297.689V284.685C297.672 285.061 297.528 285.416 297.285 285.682C297.042 285.948 296.718 286.105 296.375 286.123C295.843 286.123 295.333 286.355 294.957 286.766C294.581 287.178 294.369 287.736 294.369 288.318V289.514H295.061V288.333ZM255.217 348.883C255.234 348.507 255.377 348.152 255.62 347.886C255.863 347.621 256.188 347.463 256.531 347.445C257.063 347.445 257.573 347.214 257.949 346.802C258.325 346.39 258.536 345.832 258.536 345.25V343.994H257.845V345.235C257.827 345.623 257.673 345.989 257.416 346.257C257.158 346.524 256.817 346.673 256.462 346.673C255.93 346.673 255.42 346.904 255.044 347.316C254.668 347.727 254.456 348.286 254.456 348.868V350.064H255.148L255.217 348.883ZM224.694 364.913C224.694 364.525 224.83 364.151 225.075 363.869C225.319 363.587 225.653 363.419 226.008 363.4C226.54 363.4 227.05 363.168 227.426 362.757C227.802 362.345 228.013 361.787 228.013 361.205V359.948H227.322V361.205C227.305 361.58 227.161 361.935 226.919 362.201C226.676 362.467 226.351 362.624 226.008 362.643C225.476 362.643 224.966 362.874 224.59 363.286C224.214 363.697 224.003 364.256 224.003 364.838V366.034H224.694V364.913ZM264.566 383.078C264.583 382.703 264.726 382.348 264.969 382.082C265.212 381.816 265.537 381.659 265.88 381.64C266.412 381.64 266.922 381.409 267.298 380.997C267.674 380.586 267.885 380.027 267.885 379.445V378.189H267.194V379.445C267.176 379.834 267.022 380.199 266.765 380.467C266.507 380.735 266.166 380.884 265.811 380.883C265.279 380.883 264.769 381.115 264.393 381.526C264.017 381.938 263.805 382.496 263.805 383.078V384.274H264.497L264.566 383.078ZM309.499 322.71C309.499 322.322 309.635 321.948 309.88 321.666C310.124 321.384 310.458 321.216 310.813 321.197C311.078 321.197 311.34 321.139 311.584 321.028C311.828 320.917 312.05 320.754 312.236 320.548C312.422 320.343 312.57 320.099 312.67 319.831C312.77 319.563 312.82 319.276 312.818 318.987V317.73H312.127V318.987C312.127 319.375 311.991 319.749 311.747 320.031C311.502 320.313 311.168 320.481 310.813 320.5C310.281 320.5 309.771 320.732 309.395 321.143C309.019 321.555 308.808 322.113 308.808 322.695V323.876H309.499V322.71ZM291.161 263.493C291.416 263.238 291.749 263.096 292.094 263.096C292.44 263.096 292.773 263.238 293.028 263.493C293.213 263.698 293.434 263.862 293.677 263.973C293.92 264.084 294.182 264.142 294.445 264.142C294.709 264.142 294.97 264.084 295.214 263.973C295.457 263.862 295.678 263.698 295.863 263.493L296.637 262.645L296.14 262.115L295.379 262.963C295.124 263.218 294.791 263.36 294.445 263.36C294.1 263.36 293.767 263.218 293.512 262.963C293.327 262.758 293.106 262.594 292.863 262.483C292.619 262.372 292.358 262.314 292.094 262.314C291.831 262.314 291.569 262.372 291.326 262.483C291.083 262.594 290.862 262.758 290.677 262.963L289.861 263.841L290.345 264.386L291.161 263.493ZM266.571 290.559C266.826 290.303 267.159 290.162 267.505 290.162C267.85 290.162 268.183 290.303 268.438 290.559C268.816 290.937 269.309 291.147 269.821 291.147C270.333 291.147 270.827 290.937 271.204 290.559L271.965 289.711L271.481 289.181L270.706 290.029C270.452 290.28 270.122 290.419 269.78 290.419C269.437 290.419 269.107 290.28 268.853 290.029C268.668 289.823 268.447 289.66 268.204 289.549C267.961 289.437 267.699 289.38 267.436 289.38C267.172 289.38 266.911 289.437 266.667 289.549C266.424 289.66 266.203 289.823 266.018 290.029L265.202 290.907L265.686 291.452L266.571 290.559ZM249.533 327.282C249.788 327.027 250.121 326.885 250.466 326.885C250.812 326.885 251.145 327.027 251.4 327.282C251.585 327.487 251.806 327.651 252.049 327.762C252.293 327.873 252.554 327.931 252.817 327.931C253.081 327.931 253.342 327.873 253.586 327.762C253.829 327.651 254.05 327.487 254.235 327.282L255.009 326.434L254.512 325.904L253.751 326.752C253.496 327.007 253.163 327.149 252.817 327.149C252.472 327.149 252.139 327.007 251.884 326.752C251.699 326.547 251.478 326.383 251.235 326.272C250.991 326.161 250.73 326.103 250.466 326.103C250.203 326.103 249.941 326.161 249.698 326.272C249.455 326.383 249.234 326.547 249.049 326.752L248.233 327.63L248.731 328.175L249.533 327.282ZM256.904 365.443C257.158 365.192 257.488 365.053 257.831 365.053C258.173 365.053 258.503 365.192 258.757 365.443C259.135 365.822 259.628 366.032 260.14 366.032C260.652 366.032 261.146 365.822 261.523 365.443L262.298 364.596L261.814 364.066L261.039 364.898C260.919 365.035 260.775 365.143 260.616 365.217C260.457 365.292 260.286 365.33 260.113 365.33C259.94 365.33 259.768 365.292 259.609 365.217C259.45 365.143 259.306 365.035 259.186 364.898C258.806 364.49 258.294 364.261 257.762 364.261C257.229 364.261 256.717 364.49 256.337 364.898L255.535 365.791L256.019 366.336L256.904 365.443ZM280.899 387.801C281.154 387.546 281.487 387.404 281.833 387.404C282.178 387.404 282.511 387.546 282.766 387.801C283.149 388.198 283.656 388.42 284.184 388.42C284.711 388.42 285.218 388.198 285.601 387.801L286.376 386.953L285.878 386.424L285.117 387.256C284.862 387.512 284.529 387.653 284.184 387.653C283.838 387.653 283.505 387.512 283.25 387.256C282.872 386.849 282.363 386.62 281.833 386.62C281.302 386.62 280.793 386.849 280.415 387.256L279.599 388.149L280.097 388.679L280.899 387.801ZM289.916 323.528C290.171 323.273 290.504 323.131 290.85 323.131C291.195 323.131 291.528 323.273 291.783 323.528C292.166 323.925 292.673 324.146 293.201 324.146C293.728 324.146 294.235 323.925 294.618 323.528L295.379 322.68L294.895 322.15L294.134 322.983C293.879 323.238 293.546 323.38 293.201 323.38C292.855 323.38 292.522 323.238 292.267 322.983C291.889 322.575 291.38 322.347 290.85 322.347C290.319 322.347 289.81 322.575 289.432 322.983L288.616 323.876L289.114 324.406L289.916 323.528ZM296.015 373.693C296.27 373.438 296.603 373.296 296.949 373.296C297.294 373.296 297.627 373.438 297.882 373.693C298.258 374.104 298.768 374.336 299.3 374.336C299.831 374.336 300.341 374.104 300.717 373.693L301.492 372.845L300.994 372.316L300.233 373.163C299.978 373.419 299.645 373.56 299.3 373.56C298.954 373.56 298.621 373.419 298.366 373.163C297.989 372.785 297.495 372.575 296.983 372.575C296.471 372.575 295.978 372.785 295.6 373.163L294.729 373.996L295.227 374.541L296.015 373.693ZM321.614 370.56C321.868 370.309 322.198 370.17 322.541 370.17C322.883 370.17 323.213 370.309 323.467 370.56C323.849 370.96 324.357 371.184 324.885 371.184C325.413 371.184 325.921 370.96 326.303 370.56L327.077 369.712L326.593 369.182L325.819 370.03C325.564 370.281 325.234 370.42 324.892 370.42C324.55 370.42 324.219 370.281 323.965 370.03C323.779 369.824 323.557 369.66 323.312 369.549C323.068 369.437 322.806 369.38 322.541 369.38C322.276 369.38 322.014 369.437 321.769 369.549C321.525 369.66 321.303 369.824 321.116 370.03L320.314 370.908L320.798 371.453L321.614 370.56ZM323.661 323.528C323.782 323.391 323.927 323.282 324.088 323.208C324.248 323.133 324.42 323.095 324.595 323.095C324.769 323.095 324.941 323.133 325.101 323.208C325.262 323.282 325.407 323.391 325.528 323.528C325.903 323.913 326.397 324.128 326.911 324.128C327.425 324.128 327.92 323.913 328.294 323.528L329.055 322.68L328.571 322.15L327.81 322.983C327.555 323.238 327.222 323.38 326.876 323.38C326.531 323.38 326.198 323.238 325.943 322.983C325.562 322.582 325.054 322.359 324.525 322.359C323.997 322.359 323.489 322.582 323.108 322.983L322.292 323.876L322.776 324.406L323.661 323.528ZM312.597 338.665C312.851 338.414 313.181 338.275 313.524 338.275C313.866 338.275 314.196 338.414 314.45 338.665C314.825 339.05 315.319 339.265 315.833 339.265C316.347 339.265 316.842 339.05 317.216 338.665L317.991 337.818L317.507 337.288L316.732 338.12C316.478 338.371 316.148 338.51 315.806 338.51C315.463 338.51 315.133 338.371 314.879 338.12C314.499 337.712 313.987 337.483 313.455 337.483C312.922 337.483 312.41 337.712 312.03 338.12L311.228 339.013L311.712 339.543L312.597 338.665ZM274.427 350.2C274.682 349.945 275.015 349.803 275.36 349.803C275.706 349.803 276.039 349.945 276.294 350.2C276.671 350.608 277.181 350.836 277.711 350.836C278.242 350.836 278.751 350.608 279.129 350.2L279.903 349.352L279.405 348.822L278.645 349.655C278.39 349.91 278.057 350.052 277.711 350.052C277.366 350.052 277.033 349.91 276.778 349.655C276.393 349.261 275.887 349.042 275.36 349.042C274.834 349.042 274.327 349.261 273.943 349.655L273.127 350.548L273.624 351.078L274.427 350.2ZM239.313 355.453C239.567 355.202 239.897 355.063 240.239 355.063C240.581 355.063 240.912 355.202 241.166 355.453C241.543 355.831 242.037 356.041 242.549 356.041C243.061 356.041 243.554 355.831 243.932 355.453L244.706 354.605L244.222 354.075L243.448 354.923C243.194 355.174 242.863 355.313 242.521 355.313C242.179 355.313 241.849 355.174 241.594 354.923C241.211 354.521 240.701 354.297 240.17 354.297C239.639 354.297 239.129 354.521 238.746 354.923L238.026 355.831L238.51 356.376L239.313 355.453ZM245.287 389.83C245.541 389.579 245.871 389.44 246.214 389.44C246.556 389.44 246.886 389.579 247.14 389.83C247.518 390.237 248.027 390.466 248.558 390.466C249.088 390.466 249.598 390.237 249.975 389.83L250.75 388.982L250.252 388.452L249.491 389.285C249.37 389.422 249.225 389.53 249.065 389.605C248.904 389.679 248.732 389.717 248.558 389.717C248.384 389.717 248.211 389.679 248.051 389.605C247.891 389.53 247.745 389.422 247.624 389.285C247.25 388.899 246.755 388.685 246.241 388.685C245.727 388.685 245.233 388.899 244.858 389.285L244.042 390.178L244.54 390.708L245.287 389.83ZM223.159 385.288C223.413 385.037 223.743 384.898 224.086 384.898C224.428 384.898 224.758 385.037 225.012 385.288C225.387 385.674 225.881 385.888 226.395 385.888C226.909 385.888 227.404 385.674 227.778 385.288L228.553 384.441L228.069 383.911L227.294 384.759C227.039 385.014 226.706 385.155 226.361 385.155C226.015 385.155 225.682 385.014 225.427 384.759C225.242 384.553 225.021 384.39 224.778 384.279C224.535 384.167 224.274 384.11 224.01 384.11C223.746 384.11 223.485 384.167 223.242 384.279C222.998 384.39 222.777 384.553 222.592 384.759L221.79 385.637L222.274 386.181L223.159 385.288ZM236.519 291.346C236.773 291.095 237.103 290.956 237.445 290.956C237.788 290.956 238.118 291.095 238.372 291.346C238.75 291.724 239.243 291.934 239.755 291.934C240.267 291.934 240.761 291.724 241.138 291.346L241.913 290.498L241.429 289.968L240.654 290.816C240.399 291.071 240.066 291.213 239.721 291.213C239.375 291.213 239.042 291.071 238.787 290.816C238.602 290.61 238.381 290.447 238.138 290.336C237.894 290.224 237.633 290.167 237.369 290.167C237.106 290.167 236.845 290.224 236.601 290.336C236.358 290.447 236.137 290.61 235.952 290.816L235.15 291.694L235.634 292.239L236.519 291.346Z" fill="white"/>
<path d="M339.745 392.509H319.54L280.899 167.749C289.031 170.776 299.03 181.221 304.41 196.994C306.277 202.474 308.13 208.862 309.942 215.931C310.025 216.279 310.108 216.627 310.205 216.976C315.557 238.001 320.674 264.764 325.085 291.028C327.589 305.878 329.871 320.576 331.848 333.973L332.097 335.744C336.799 368.138 339.745 392.509 339.745 392.509Z" fill="#263238"/>
<path d="M350.74 347.551C353.243 353.727 351.874 364.111 356.438 363.521C360.49 362.991 360.808 355.695 360.808 355.695C360.808 355.695 362.883 364.051 367.101 362.113C371.319 360.175 370.171 352.107 370.171 352.107C370.171 352.107 371.623 359.146 375.703 356.875C379.783 354.605 379.963 347.566 379.963 347.566C379.963 347.566 381.636 349.261 383.863 346.249C387.057 341.935 384.623 330.249 382.023 324.466C379.423 318.684 366.022 299.641 363.878 296.795L329.857 314.703C329.857 314.703 330.147 327.312 331.005 333.685C331.862 340.058 340.008 360.191 344.71 358.314C349.412 356.437 343.438 342.328 342.663 338.514C341.889 334.699 342.566 333.867 344.129 335.29C345.194 336.152 349.634 344.811 350.74 347.551Z" fill="#EB9481"/>
<path d="M360.67 355.347C360.435 345.129 358.734 340.709 353.644 332.338C353.547 332.171 353.741 331.974 353.865 332.141C359.522 339.831 362.399 345.053 361.112 355.362C361.112 355.831 360.67 355.831 360.67 355.347Z" fill="#263238"/>
<path d="M370.088 352.531C369.009 341.935 367.198 337.136 362.454 327.948C362.385 327.812 362.578 327.675 362.661 327.797C368 336.395 370.766 341.662 370.572 352.395C370.558 352.879 370.143 353.015 370.088 352.531Z" fill="#263238"/>
<path d="M379.866 347.46C378.151 337.303 376.367 331.929 370.724 323.649C370.703 323.61 370.695 323.564 370.701 323.519C370.708 323.474 370.728 323.433 370.759 323.402C370.79 323.372 370.83 323.354 370.871 323.352C370.913 323.35 370.954 323.364 370.987 323.392C377.487 331.233 379.769 337.923 380.142 347.369C380.17 348.02 379.976 348.096 379.866 347.46Z" fill="#263238"/>
<path d="M293.346 178.269C319.623 208.135 360.117 287.592 364.86 298.445C368.083 305.817 332.899 325.299 331.392 319.94C329.47 313.068 299.459 235.307 291.285 203.382C286.763 185.717 287.925 172.093 293.346 178.269Z" fill="#EB9481"/>
<path d="M281.424 181.917C283.181 192.816 295.033 229.161 295.033 229.161L316.857 223.424L317.244 223.333L331.143 219.7C331.143 219.7 304.493 185.656 292.004 175.166C279.516 164.676 279.516 169.641 281.424 181.917Z" fill="#FFC727"/>
<path d="M316.718 218.081H315.626C315.094 218.081 314.584 217.849 314.208 217.438C313.832 217.026 313.621 216.468 313.621 215.886C313.621 215.484 313.475 215.099 313.215 214.815C312.956 214.531 312.604 214.372 312.238 214.372H311.09V213.615H312.238C312.769 213.615 313.279 213.846 313.656 214.258C314.032 214.67 314.243 215.228 314.243 215.81C314.26 216.186 314.403 216.541 314.646 216.807C314.889 217.072 315.214 217.23 315.557 217.248H316.649L316.718 218.081ZM298.394 198.856C298.649 198.601 298.982 198.459 299.327 198.459C299.673 198.459 300.006 198.601 300.261 198.856C300.642 199.257 301.15 199.48 301.678 199.48C302.207 199.48 302.715 199.257 303.096 198.856L303.912 197.963L303.414 197.433L302.612 198.326C302.357 198.582 302.024 198.723 301.678 198.723C301.333 198.723 301 198.582 300.745 198.326C300.56 198.121 300.339 197.958 300.096 197.846C299.852 197.735 299.591 197.678 299.327 197.678C299.064 197.678 298.802 197.735 298.559 197.846C298.316 197.958 298.095 198.121 297.91 198.326L297.135 199.159L297.633 199.704L298.394 198.856ZM292.295 215.916C292.312 215.541 292.455 215.185 292.698 214.92C292.941 214.654 293.266 214.496 293.609 214.478C294.141 214.478 294.651 214.247 295.027 213.835C295.403 213.423 295.614 212.865 295.614 212.283V211.027H294.923V212.283C294.923 212.672 294.787 213.046 294.542 213.328C294.298 213.609 293.963 213.777 293.609 213.797C293.077 213.797 292.567 214.028 292.191 214.44C291.815 214.851 291.603 215.41 291.603 215.992V217.188H292.295V215.916ZM284.384 188.941C284.382 188.745 284.417 188.551 284.486 188.37C284.556 188.189 284.659 188.027 284.789 187.892C284.918 187.756 285.072 187.652 285.241 187.585C285.409 187.519 285.588 187.491 285.767 187.503C286.299 187.503 286.809 187.272 287.185 186.86C287.561 186.449 287.772 185.89 287.772 185.308V184.052H287.081V185.308C287.081 185.697 286.945 186.071 286.701 186.353C286.456 186.634 286.122 186.803 285.767 186.822C285.235 186.822 284.725 187.053 284.349 187.465C283.973 187.876 283.762 188.435 283.762 189.017V190.198H284.453L284.384 188.941Z" fill="white"/>
<path d="M293.221 176.226C293.498 175.529 275.865 192.877 261.33 189.849C254.069 188.336 252.7 170.61 253.557 170.428C265.783 167.719 277.386 160.422 293.221 176.226Z" fill="#EB9481"/>
<path d="M279.378 169.853C278.838 171.367 270.665 180.449 264.165 179.117C262.049 178.663 263.778 165.902 263.778 165.902L263.708 164.918L262.74 151.294L278.23 143.559L280.443 142.56C280.443 142.56 280.443 146.314 280.443 150.977V151.643C280.443 151.915 280.443 152.157 280.443 152.415C280.443 153.111 280.443 153.822 280.443 154.534C280.443 155.245 280.443 155.593 280.443 156.169V157.849C280.342 161.872 279.986 165.883 279.378 169.853V169.853Z" fill="#EB9481"/>
<path d="M280.484 150.977C278.779 154.496 276.394 157.567 273.494 159.974C270.595 162.382 267.251 164.069 263.695 164.918L262.727 151.294L278.216 143.559L280.429 142.56C280.429 142.56 280.47 146.314 280.484 150.977Z" fill="#263238"/>
<path d="M249.09 127.589C244.015 150.946 256.213 156.91 260.818 158.091C264.967 159.181 279.35 162.284 286.597 139.639C293.844 116.993 285.546 107.018 276.1 103.99C266.654 100.963 254.138 104.232 249.09 127.589Z" fill="#EB9481"/>
<path d="M253.765 125.061C254.271 125.092 254.779 125.092 255.286 125.061C255.819 125.118 256.354 124.98 256.807 124.668C256.934 124.54 257.019 124.37 257.049 124.184C257.079 123.998 257.052 123.806 256.973 123.638C256.768 123.334 256.491 123.096 256.172 122.95C255.853 122.803 255.504 122.753 255.162 122.806C254.456 122.796 253.772 123.071 253.239 123.578C253.144 123.702 253.081 123.853 253.057 124.013C253.032 124.173 253.048 124.338 253.102 124.49C253.155 124.641 253.245 124.774 253.362 124.875C253.478 124.975 253.618 125.04 253.765 125.061V125.061Z" fill="#263238"/>
<path d="M268.673 128.27C268.202 128.099 267.74 127.897 267.29 127.665C266.751 127.536 266.265 127.217 265.907 126.757C265.826 126.59 265.798 126.397 265.828 126.211C265.858 126.024 265.945 125.854 266.073 125.727C266.356 125.514 266.687 125.387 267.029 125.36C267.372 125.333 267.716 125.408 268.023 125.576C268.698 125.806 269.267 126.309 269.614 126.984C269.684 127.139 269.713 127.313 269.696 127.485C269.679 127.657 269.618 127.82 269.519 127.956C269.42 128.091 269.288 128.192 269.138 128.248C268.988 128.304 268.827 128.312 268.673 128.27V128.27Z" fill="#263238"/>
<path d="M264.884 133.72C264.884 133.72 264.981 133.826 264.967 133.886C264.649 135.491 264.524 137.368 265.755 138.185C265.755 138.185 265.755 138.291 265.755 138.261C264.151 137.686 264.303 135.173 264.884 133.72Z" fill="#263238"/>
<path d="M266.488 132.312C268.881 132.615 268.162 137.822 265.949 137.565C263.736 137.307 264.483 132.07 266.488 132.312Z" fill="#263238"/>
<path d="M267.387 132.751C267.761 133.114 268.093 133.705 268.59 133.841C269.088 133.977 269.683 133.523 270.126 133.054C270.126 133.054 270.208 133.054 270.126 133.054C270.015 134.053 269.517 135.022 268.521 135.007C267.525 134.991 267.138 134.008 267 132.963C267.069 132.857 267.235 132.6 267.387 132.751Z" fill="#263238"/>
<path d="M255.729 131.48C255.729 131.48 255.604 131.48 255.604 131.601C255.438 133.236 254.996 135.067 253.599 135.385V135.476C255.258 135.491 255.812 133.039 255.729 131.48Z" fill="#263238"/>
<path d="M254.622 129.587C252.257 129.012 251.4 134.129 253.585 134.734C255.77 135.34 256.6 130.057 254.622 129.587Z" fill="#263238"/>
<path d="M253.585 129.724C253.17 129.936 252.714 130.359 252.202 130.299C251.69 130.238 251.386 129.603 251.137 128.997C251.137 128.997 251.068 128.997 251.054 128.997C250.874 129.996 251.054 131.086 251.842 131.449C252.631 131.813 253.336 131.041 253.709 130.102C253.834 129.951 253.751 129.648 253.585 129.724Z" fill="#263238"/>
<path d="M257.167 139.094C257.167 139.094 256.503 141.44 256.337 142.575C256.337 142.681 256.558 142.787 256.918 142.863C257.783 143.199 258.717 143.266 259.615 143.058C260.513 142.85 261.341 142.373 262.007 141.682C262.09 141.591 262.007 141.455 261.869 141.501C260.4 142.262 258.745 142.479 257.153 142.121C257.153 141.788 258.412 138.125 258.246 138.079C257.426 138.019 256.604 138.075 255.798 138.246C257.042 133.296 259.006 128.603 260.168 123.654C260.183 123.615 260.183 123.572 260.169 123.534C260.154 123.496 260.127 123.465 260.092 123.449C260.057 123.433 260.018 123.433 259.983 123.448C259.948 123.464 259.92 123.494 259.905 123.532C257.678 128.5 255.908 133.697 254.622 139.048C254.456 139.684 256.724 139.215 257.167 139.094Z" fill="#263238"/>
<path d="M257.125 142.015C257.519 143.079 258.151 144.016 258.965 144.74C259.428 145.112 259.982 145.323 260.555 145.345C261.8 145.345 262.132 144.21 262.173 143.135C262.194 142.567 262.152 141.998 262.049 141.44C260.506 142.203 258.781 142.405 257.125 142.015V142.015Z" fill="#263238"/>
<path d="M258.965 144.74C259.427 145.112 259.982 145.323 260.555 145.345C261.8 145.345 262.132 144.21 262.173 143.135C261.552 142.97 260.897 143.038 260.315 143.329C259.733 143.62 259.257 144.117 258.965 144.74V144.74Z" fill="#FF9BBC"/>
<path d="M286.431 139.714C283.983 139.109 278.659 130.496 280.429 117.372C280.429 117.372 279.585 129.27 280.125 131.147C280.664 133.024 277.151 126.287 278.451 115.691C275.055 117.524 271.436 118.814 267.705 119.521C262.948 120.096 260.168 119.521 259.891 119.127C259.615 118.734 266.668 117.614 268.825 115.646C268.825 115.646 255.784 119.627 250.127 119.082C249.477 119.082 250.902 104.338 260.458 99.7213C270.015 95.1044 282.697 104.263 285.781 108.804C285.781 108.804 289.999 110.317 293.65 118.098C297.301 125.879 289.031 140.38 286.431 139.714Z" fill="#263238"/>
<path d="M282.794 140.547C282.794 140.547 288.533 133.902 291.354 136.248C294.176 138.594 289.169 148.751 285.352 149.644C284.872 149.794 284.368 149.836 283.873 149.768C283.377 149.699 282.899 149.522 282.468 149.246C282.036 148.971 281.66 148.602 281.362 148.163C281.064 147.725 280.85 147.224 280.733 146.693L282.794 140.547Z" fill="#EB9481"/>
<path d="M289.847 139.124C289.847 139.124 289.847 139.215 289.847 139.23C287.164 139.941 285.477 142.257 284.191 144.8C284.375 144.547 284.607 144.34 284.871 144.194C285.135 144.048 285.425 143.966 285.721 143.955C286.017 143.943 286.311 144.002 286.584 144.127C286.857 144.252 287.102 144.441 287.302 144.679C287.316 144.694 287.324 144.712 287.326 144.733C287.329 144.753 287.325 144.773 287.315 144.791C287.306 144.808 287.291 144.822 287.274 144.829C287.256 144.836 287.237 144.837 287.219 144.831C286.798 144.596 286.319 144.514 285.852 144.596C285.385 144.677 284.953 144.919 284.619 145.285C284.054 145.887 283.553 146.558 283.126 147.283C282.973 147.51 282.586 147.283 282.711 147.041C283.167 143.453 286.334 138.912 289.847 139.124Z" fill="#263238"/>
<path opacity="0.5" d="M95.7028 121.277C88.3315 140.956 68.043 220.336 81.3059 274.029C92.923 320.848 119.905 345.341 132.145 353.273C150.123 364.929 169.306 372.331 168.531 376.766C167.757 381.201 148.865 371.604 148.007 373.315C147.15 375.025 189.096 419.211 263.681 428.233C378.953 442.175 446.65 396.808 456.608 394.855C466.565 392.902 419.004 455.798 384.084 470.542C376.049 473.918 405.299 465.259 425.159 452.241C432.613 447.352 412.075 513.26 343.465 529.563C330.272 532.696 358.775 532.515 368.94 531.198C379.105 529.881 339.579 561.049 236.809 552.087C156.845 545.049 82.3432 476.749 51.7376 401.44C48.294 392.963 41.1992 398.503 38.9311 392.509C34.0907 379.718 36.3311 354.983 33.9662 350.124C31.6013 345.265 23.8427 350.124 21.5193 337.167C19.1959 324.209 20.4405 285.336 39.595 223C41.8631 215.613 38.7375 218.111 34.6439 224.711C30.5502 231.311 25.7097 237.184 21.1459 236.942C16.582 236.7 19.0022 218.368 38.3088 184.627C71.4037 126.651 102.396 103.491 95.7028 121.277Z" fill="#FFC727"/>
<path opacity="0.5" d="M174.547 384.501C174.741 378.325 196.537 381.368 194.559 389.648C192.581 397.928 174.284 392.887 174.547 384.501Z" fill="#FFC727"/>
<path opacity="0.5" d="M378.026 529.139C379.409 534.922 398.412 530.895 396.904 523.084C395.397 515.273 376.422 522.176 378.026 529.139Z" fill="#FFC727"/>
<path opacity="0.5" d="M16.665 243.905C13.0278 243.406 10.5384 251.973 14.9086 253.563C19.2789 255.152 21.4225 244.586 16.665 243.905Z" fill="#FFC727"/>
<path opacity="0.5" d="M462.154 390.965C464.919 394.855 483.949 382.079 476.053 376.024C470.548 371.786 459.415 387.075 462.154 390.965Z" fill="#FFC727"/>
<path d="M295.891 505.661L288.339 507.19L286.652 515.909L284.965 507.19L277.4 505.661L284.923 503.648L286.652 495.413L288.367 503.648L295.891 505.661Z" fill="#FEFEFE"/>
<path d="M114.733 379.46L107.182 380.989L105.494 389.709L103.807 380.989L96.2423 379.46L103.766 377.447L105.494 369.212L107.209 377.447L114.733 379.46Z" fill="#FEFEFE"/>
<path d="M76.3963 149.781L68.8452 151.31L67.1579 160.029L65.4707 151.31L57.9196 149.781L65.4292 147.767L67.1579 139.533L68.8728 147.767L76.3963 149.781Z" fill="#FEFEFE"/>
<path d="M438.366 416.608L434.134 417.47L433.194 422.345L432.253 417.47L428.035 416.608L432.239 415.487L433.194 410.886L434.162 415.487L438.366 416.608Z" fill="#FEFEFE"/>
<path d="M205.816 442.16L201.598 443.022L200.658 447.881L199.717 443.022L195.499 442.16L199.69 441.039L200.658 436.438L201.626 441.039L205.816 442.16Z" fill="#FEFEFE"/>
<path d="M385.425 501.135L381.207 501.998L380.267 506.872L379.312 501.998L375.094 501.135L379.299 500.015L380.267 495.413L381.221 500.015L385.425 501.135Z" fill="#FEFEFE"/>
<path d="M250.058 536.375L245.84 537.222L244.886 542.097L243.945 537.222L239.727 536.375L243.932 535.239L244.886 530.638L245.854 535.239L250.058 536.375Z" fill="#FEFEFE"/>
<path d="M87.0177 416.608L82.7858 417.47L81.8453 422.345L80.9049 417.47L76.6868 416.608L80.8911 415.487L81.8453 410.886L82.8134 415.487L87.0177 416.608Z" fill="#FEFEFE"/>
<path d="M81.8453 280.053L77.6272 280.901L76.6867 285.775L75.7463 280.901L71.5143 280.053L75.7186 278.918L76.6867 274.316L77.641 278.918L81.8453 280.053Z" fill="#FEFEFE"/>
<path d="M309.333 454.058C309.031 454.093 308.751 454.249 308.548 454.496C308.345 454.744 308.233 455.065 308.233 455.397C308.233 455.73 308.345 456.051 308.548 456.298C308.751 456.545 309.031 456.702 309.333 456.737C309.635 456.702 309.915 456.545 310.118 456.298C310.321 456.051 310.434 455.73 310.434 455.397C310.434 455.065 310.321 454.744 310.118 454.496C309.915 454.249 309.635 454.093 309.333 454.058V454.058Z" fill="#FEFEFE"/>
<path d="M49.9397 201.853C49.6375 201.889 49.3579 202.045 49.1548 202.292C48.9516 202.54 48.8392 202.86 48.8392 203.193C48.8392 203.526 48.9516 203.847 49.1548 204.094C49.3579 204.341 49.6375 204.497 49.9397 204.533C50.2419 204.497 50.5215 204.341 50.7247 204.094C50.9279 203.847 51.0403 203.526 51.0403 203.193C51.0403 202.86 50.9279 202.54 50.7247 202.292C50.5215 202.045 50.2419 201.889 49.9397 201.853Z" fill="#FEFEFE"/>
<path d="M386.283 457.66C385.981 457.695 385.701 457.852 385.498 458.099C385.295 458.346 385.182 458.667 385.182 459C385.182 459.333 385.295 459.653 385.498 459.901C385.701 460.148 385.981 460.304 386.283 460.34C386.585 460.304 386.865 460.148 387.068 459.901C387.271 459.653 387.383 459.333 387.383 459C387.383 458.667 387.271 458.346 387.068 458.099C386.865 457.852 386.585 457.695 386.283 457.66V457.66Z" fill="#FEFEFE"/>
<path d="M57.9196 389.648C57.6174 389.683 57.3378 389.84 57.1346 390.087C56.9314 390.334 56.819 390.655 56.819 390.988C56.819 391.32 56.9314 391.641 57.1346 391.888C57.3378 392.136 57.6174 392.292 57.9196 392.327C58.2218 392.292 58.5014 392.136 58.7045 391.888C58.9077 391.641 59.0202 391.32 59.0202 390.988C59.0202 390.655 58.9077 390.334 58.7045 390.087C58.5014 389.84 58.2218 389.683 57.9196 389.648V389.648Z" fill="#FEFEFE"/>
<path d="M28.6137 307.649C28.4033 307.678 28.21 307.79 28.0698 307.964C27.9296 308.138 27.8523 308.362 27.8523 308.594C27.8523 308.826 27.9296 309.05 28.0698 309.225C28.21 309.399 28.4033 309.511 28.6137 309.54C28.824 309.511 29.0174 309.399 29.1576 309.225C29.2977 309.05 29.3751 308.826 29.3751 308.594C29.3751 308.362 29.2977 308.138 29.1576 307.964C29.0174 307.79 28.824 307.678 28.6137 307.649V307.649Z" fill="#FEFEFE"/>
<path d="M221.873 478.444C221.662 478.473 221.469 478.585 221.329 478.759C221.189 478.933 221.111 479.158 221.111 479.39C221.111 479.622 221.189 479.846 221.329 480.02C221.469 480.194 221.662 480.306 221.873 480.335C222.083 480.306 222.276 480.194 222.417 480.02C222.557 479.846 222.634 479.622 222.634 479.39C222.634 479.158 222.557 478.933 222.417 478.759C222.276 478.585 222.083 478.473 221.873 478.444V478.444Z" fill="#FEFEFE"/>
<path d="M136.473 475.038C136.263 475.067 136.069 475.179 135.929 475.353C135.789 475.528 135.712 475.752 135.712 475.984C135.712 476.216 135.789 476.44 135.929 476.614C136.069 476.788 136.263 476.9 136.473 476.929C136.683 476.9 136.877 476.788 137.017 476.614C137.157 476.44 137.234 476.216 137.234 475.984C137.234 475.752 137.157 475.528 137.017 475.353C136.877 475.179 136.683 475.067 136.473 475.038V475.038Z" fill="#FEFEFE"/>
<path d="M283.292 467.242C282.701 467.292 282.149 467.584 281.747 468.059C281.344 468.535 281.121 469.16 281.121 469.808C281.121 470.456 281.344 471.081 281.747 471.557C282.149 472.032 282.701 472.324 283.292 472.374C283.882 472.324 284.434 472.032 284.836 471.557C285.239 471.081 285.462 470.456 285.462 469.808C285.462 469.16 285.239 468.535 284.836 468.059C284.434 467.584 283.882 467.292 283.292 467.242Z" fill="#FEFEFE"/>
<path d="M147.565 466.334C146.974 466.384 146.423 466.676 146.02 467.151C145.618 467.627 145.394 468.251 145.394 468.9C145.394 469.548 145.618 470.173 146.02 470.648C146.423 471.124 146.974 471.416 147.565 471.466C148.156 471.416 148.707 471.124 149.11 470.648C149.512 470.173 149.736 469.548 149.736 468.9C149.736 468.251 149.512 467.627 149.11 467.151C148.707 466.676 148.156 466.384 147.565 466.334Z" fill="#FEFEFE"/>
<path d="M152.004 276.738C151.727 278.332 151.023 279.8 149.983 280.956C148.943 282.112 147.613 282.905 146.162 283.234C144.71 283.564 143.202 283.414 141.828 282.805C140.454 282.196 139.276 281.155 138.442 279.813C137.609 278.471 137.158 276.889 137.146 275.267C137.134 273.644 137.562 272.054 138.375 270.698C139.189 269.341 140.352 268.279 141.717 267.646C143.082 267.013 144.587 266.837 146.044 267.141C147.011 267.343 147.932 267.751 148.755 268.342C149.578 268.934 150.287 269.697 150.84 270.588C151.394 271.479 151.782 272.481 151.981 273.536C152.181 274.592 152.189 275.68 152.004 276.738V276.738Z" fill="#455A64"/>
<path d="M159.034 236.15L153.41 234.979L146.37 275.487L151.995 276.658L159.034 236.15Z" fill="#455A64"/>
<path d="M177.866 269.972C177.591 271.567 176.89 273.037 175.851 274.195C174.812 275.354 173.482 276.149 172.031 276.481C170.579 276.812 169.07 276.664 167.694 276.057C166.319 275.449 165.139 274.408 164.305 273.066C163.47 271.725 163.018 270.142 163.005 268.519C162.993 266.895 163.42 265.304 164.234 263.947C165.048 262.59 166.211 261.528 167.577 260.894C168.942 260.261 170.449 260.085 171.906 260.39C173.856 260.797 175.579 262.035 176.697 263.831C177.814 265.628 178.235 267.836 177.866 269.972V269.972Z" fill="#455A64"/>
<path d="M184.902 229.388L179.277 228.217L172.237 268.725L177.862 269.896L184.902 229.388Z" fill="#455A64"/>
<path d="M184.906 229.464L152.488 240.378L153.429 234.974L185.846 224.045L184.906 229.464Z" fill="#455A64"/>
<path d="M183.135 239.667L150.718 250.581L151.659 245.177L184.076 234.247L183.135 239.667Z" fill="#455A64"/>
<path d="M475.043 59.6829C474.76 61.2741 474.053 62.738 473.011 63.8897C471.969 65.0415 470.638 65.8295 469.187 66.1543C467.736 66.4791 466.23 66.3261 464.858 65.7147C463.486 65.1033 462.311 64.0608 461.48 62.7188C460.649 61.3769 460.2 59.7956 460.19 58.1746C460.179 56.5535 460.607 54.9654 461.421 53.6107C462.234 52.2559 463.396 51.1952 464.759 50.5625C466.123 49.9298 467.627 49.7533 469.082 50.0555C470.053 50.2551 470.978 50.6631 471.804 51.256C472.63 51.8489 473.341 52.615 473.895 53.51C474.449 54.405 474.836 55.4113 475.033 56.4708C475.23 57.5303 475.233 58.622 475.043 59.6829V59.6829Z" fill="#C7C7C7"/>
<path d="M482.101 19.1043L476.476 17.9332L469.436 58.4412L475.061 59.6122L482.101 19.1043Z" fill="#C7C7C7"/>
<path d="M503.006 12.6644L497.382 11.4933L495.348 23.1966L500.972 24.3677L503.006 12.6644Z" fill="#C7C7C7"/>
<path d="M502.744 14.195L475.541 23.3229L476.481 17.9188L503.685 8.77582L502.744 14.195Z" fill="#C7C7C7"/>
<path d="M500.974 24.3976L473.771 33.5406L474.711 28.1214L501.914 18.9784L500.974 24.3976Z" fill="#C7C7C7"/>
<path d="M485.111 304.651C474.282 330.824 456.871 330.249 452.085 336.561C449.408 340.652 446.947 344.908 444.714 349.307L418.769 340.224C419.278 335.223 419.523 330.194 419.502 325.163C418.963 316.988 404.441 306.407 409.489 278.237C412.781 259.708 433.277 235.852 460.66 245.388C488.043 254.925 492.22 287.455 485.111 304.651Z" fill="#FFC727"/>
<path d="M429.629 296.423L424.12 344.287L425.492 344.476L431.001 296.612L429.629 296.423Z" fill="white"/>
<path d="M457.891 306.052L436.982 348.52L438.199 349.238L459.109 306.77L457.891 306.052Z" fill="white"/>
<path d="M441.326 316.686C440.857 316.701 440.39 316.629 439.943 316.474C437.91 315.762 436.375 313.28 435.614 309.48C435.614 309.314 435.614 309.132 435.517 308.966C435.14 309.25 434.713 309.445 434.263 309.539C433.813 309.632 433.35 309.623 432.903 309.511C429.017 308.148 430.013 298.839 430.054 298.445L430.746 298.536C430.746 298.627 429.764 307.618 433.111 308.784C433.511 308.866 433.924 308.851 434.318 308.738C434.713 308.625 435.08 308.419 435.393 308.133C434.826 303.864 435.31 298.718 437.108 296.916C437.388 296.624 437.736 296.422 438.114 296.331C438.492 296.24 438.885 296.265 439.251 296.402C440.952 296.992 441.506 298.839 440.745 301.442C439.851 304.224 438.26 306.673 436.153 308.511C436.153 308.784 436.236 309.041 436.292 309.314C436.707 311.357 437.744 314.915 440.15 315.747C441.768 316.322 443.787 315.49 445.862 313.431C446.028 313.265 446.208 313.083 446.374 312.886C445.416 310.189 445.357 307.209 446.208 304.47C447.134 301.306 448.78 299.732 450.536 300.337C450.874 300.461 451.175 300.682 451.406 300.978C451.637 301.274 451.791 301.633 451.85 302.018C452.362 304.606 450.205 309.586 447.19 313.053C447.676 314.039 448.487 314.785 449.458 315.142C451.836 315.974 455.75 310.494 457.064 308.315L457.631 308.723C457.438 309.072 452.611 317.049 449.25 315.868C448.179 315.473 447.275 314.666 446.706 313.598L446.318 313.991C444.994 315.502 443.227 316.456 441.326 316.686V316.686ZM449.9 300.973C448.517 300.973 447.494 302.896 446.968 304.697C446.24 307.157 446.24 309.806 446.968 312.266C449.734 308.996 451.726 304.394 451.269 302.108C451.238 301.854 451.14 301.615 450.988 301.419C450.836 301.223 450.636 301.079 450.412 301.003C450.23 300.959 450.043 300.949 449.859 300.973H449.9ZM438.657 297.037C438.475 297.036 438.294 297.074 438.126 297.15C437.957 297.225 437.804 297.336 437.675 297.476C436.292 298.899 435.614 303.38 436.126 307.634C437.966 305.918 439.363 303.705 440.178 301.215C440.551 299.944 440.897 297.734 439.127 297.113C438.942 297.057 438.751 297.032 438.56 297.037H438.657Z" fill="white"/>
<path d="M448.075 349.19L416.061 338L414.062 344.85L446.076 356.039L448.075 349.19Z" fill="#A6A6A6"/>
<path d="M445.741 357.137L413.727 345.948L411.728 352.797L443.742 363.987L445.741 357.137Z" fill="#A6A6A6"/>
<path d="M443.417 365.099L411.403 353.909L409.404 360.759L441.418 371.949L443.417 365.099Z" fill="#A6A6A6"/>
<path d="M466.354 222.123L463.047 233.488L464.364 233.948L467.672 222.582L466.354 222.123Z" fill="#DBDBDB"/>
<path d="M435.934 220.572L434.582 220.895L436.902 232.55L438.253 232.227L435.934 220.572Z" fill="#DBDBDB"/>
<path d="M407.482 236.078L406.459 237.097L413.794 245.92L414.817 244.901L407.482 236.078Z" fill="#DBDBDB"/>
<path d="M389.975 265.223L389.554 266.665L399.936 270.294L400.357 268.852L389.975 265.223Z" fill="#DBDBDB"/>
<path d="M398.697 297.437L388.049 299.976L388.344 301.455L398.992 298.916L398.697 297.437Z" fill="#DBDBDB"/>
<path d="M482.774 326.981L481.751 327.999L489.084 336.823L490.107 335.804L482.774 326.981Z" fill="#DBDBDB"/>
<path d="M496.677 302.696L496.256 304.138L506.638 307.766L507.058 306.324L496.677 302.696Z" fill="#DBDBDB"/>
<path d="M508.226 271.429L497.578 273.968L497.872 275.447L508.52 272.908L508.226 271.429Z" fill="#DBDBDB"/>
<path d="M493.323 240.667L485.269 248.702L486.2 249.821L494.254 241.786L493.323 240.667Z" fill="#DBDBDB"/>
</svg>
