<?xml version="1.0" encoding="utf-8"?>
<!-- Generator: Adobe Illustrator 23.1.0, SVG Export Plug-In . SVG Version: 6.00 Build 0)  -->
<svg version="1.1" id="Layer_1" xmlns="http://www.w3.org/2000/svg" xmlns:xlink="http://www.w3.org/1999/xlink" x="0px" y="0px"
	 viewBox="0 0 110.96 33.47" style="enable-background:new 0 0 110.96 33.47;" xml:space="preserve">
<style type="text/css">
	.st0{fill:#CB665F;}
	.st1{fill:#EED78E;}
	.st2{fill:#FFFFFF;}
	.st3{fill:#E7D18C;}
	.st4{fill:#304071;}
</style>
<g>
	<path d="M7.39,3.25C7.38,3.33,7.38,3.4,7.38,3.48V3.25H7.39z"/>
	<path class="st0" d="M44.07,11.44H20V3.45C19.98,1.55,18.42,0,16.49,0c-1.91,0-3.48,1.55-3.5,3.45v7.99H8.3V3.45
		C8.26,1.55,6.71,0,4.79,0C2.87,0,1.3,1.55,1.28,3.45v7.99H0c0,12.17,9.86,22.03,22.04,22.03c8.14,0,15.24-4.41,19.05-10.97
		c0.87,0.51,1.9,0.81,2.98,0.81c3.28,0,5.93-2.66,5.93-5.94C50,14.1,47.35,11.44,44.07,11.44z M44.07,20.59
		c-0.64,0-1.25-0.18-1.75-0.52c0.78-1.85,1.32-3.83,1.58-5.9c0.06-0.01,0.12-0.01,0.17-0.01c1.78,0,3.22,1.44,3.22,3.21
		C47.3,19.15,45.86,20.59,44.07,20.59z"/>
	<g>
		<path class="st2" d="M11.12,18.98c-0.03,0.03-0.07,0.05-0.12,0.05c-0.04,0-0.09-0.02-0.12-0.05l-1.33-1.33
			c-0.07-0.07-0.07-0.17,0-0.24s0.17-0.07,0.24,0L11,18.63l1.22-1.22c0.07-0.07,0.17-0.07,0.24,0s0.07,0.17,0,0.24"/>
	</g>
	<path class="st2" d="M6.98,16.84c0,0.83-0.66,1.48-1.5,1.48c-0.84,0-1.5-0.65-1.5-1.48s0.66-1.52,1.5-1.52
		C6.32,15.32,6.98,16,6.98,16.84z"/>
	<path class="st2" d="M18.77,16.84c0,0.83-0.66,1.48-1.5,1.48c-0.84,0-1.5-0.65-1.5-1.48s0.66-1.52,1.5-1.52
		C18.11,15.32,18.77,16,18.77,16.84z"/>
</g>
<g>
	<path class="st4" d="M57.14,11.01h0.51l4.74,6.82l4.72-6.82h0.51v11.2h-0.54V11.96l-4.69,6.72h-0.03l-4.69-6.72v10.26h-0.53V11.01z
		"/>
	<path class="st4" d="M71.42,18.18v-0.03c0-2.37,1.63-4.19,3.86-4.19c2.43,0,3.7,2.08,3.7,4.24c0,0.08,0,0.11,0,0.18h-7
		c0.1,2.19,1.65,3.55,3.46,3.55c1.25,0,2.26-0.66,2.9-1.49l0.38,0.3c-0.74,0.96-1.83,1.66-3.3,1.66
		C73.24,22.41,71.42,20.76,71.42,18.18z M78.41,17.91c-0.08-1.76-1.15-3.47-3.17-3.47c-1.83,0-3.17,1.49-3.27,3.47H78.41z"/>
	<path class="st4" d="M81.38,24.42l0.21-0.43c0.38,0.21,0.85,0.35,1.36,0.35c0.9,0,1.42-0.43,2.19-2.15l-3.87-8.05h0.58l3.55,7.51
		l3.25-7.51h0.54l-3.63,8.28c-0.85,1.92-1.54,2.4-2.63,2.4C82.34,24.82,81.81,24.65,81.38,24.42z"/>
	<path class="st4" d="M92.71,11.01h0.51l4.74,6.82l4.72-6.82h0.51v11.2h-0.54V11.96l-4.69,6.72h-0.03l-4.69-6.72v10.26h-0.53V11.01z
		"/>
</g>
</svg>
